<svg width="464" height="464" viewBox="0 0 464 464" fill="none" xmlns="http://www.w3.org/2000/svg">
<g filter="url(#filter0_d_602_17416)">
<path d="M459.364 231.802L345.716 431.842L118.12 432.007L4.17269 232.133L117.821 32.0925L345.417 31.9274L459.364 231.802Z" fill="#9CADCE"/>
<path d="M345.126 32.4277L458.789 231.803L345.425 431.343L118.411 431.507L4.74798 232.132L118.112 32.5923L345.126 32.4277Z" stroke="#281F99"/>
</g>
<path d="M108.727 284.273C103.394 284.273 98.5909 283.212 94.3182 281.091C90.0455 278.97 86.6212 276.061 84.0455 272.364C81.4697 268.667 80.0606 264.455 79.8182 259.727H90.7273C91.1515 263.939 93.0606 267.424 96.4545 270.182C99.8788 272.909 103.97 274.273 108.727 274.273C112.545 274.273 115.939 273.379 118.909 271.591C121.909 269.803 124.258 267.348 125.955 264.227C127.682 261.076 128.545 257.515 128.545 253.545C128.545 249.485 127.652 245.864 125.864 242.682C124.106 239.47 121.682 236.939 118.591 235.091C115.5 233.242 111.97 232.303 108 232.273C105.152 232.242 102.227 232.682 99.2273 233.591C96.2273 234.47 93.7576 235.606 91.8182 237L81.2727 235.727L86.9091 189.909H135.273V199.909H96.3636L93.0909 227.364H93.6364C95.5455 225.848 97.9394 224.591 100.818 223.591C103.697 222.591 106.697 222.091 109.818 222.091C115.515 222.091 120.591 223.455 125.045 226.182C129.53 228.879 133.045 232.576 135.591 237.273C138.167 241.97 139.455 247.333 139.455 253.364C139.455 259.303 138.121 264.606 135.455 269.273C132.818 273.909 129.182 277.576 124.545 280.273C119.909 282.939 114.636 284.273 108.727 284.273ZM187.875 284.273C181.027 284.273 175.193 282.409 170.375 278.682C165.557 274.924 161.875 269.485 159.33 262.364C156.784 255.212 155.511 246.576 155.511 236.455C155.511 226.394 156.784 217.803 159.33 210.682C161.905 203.53 165.602 198.076 170.42 194.318C175.269 190.53 181.087 188.636 187.875 188.636C194.663 188.636 200.466 190.53 205.284 194.318C210.133 198.076 213.83 203.53 216.375 210.682C218.951 217.803 220.239 226.394 220.239 236.455C220.239 246.576 218.966 255.212 216.42 262.364C213.875 269.485 210.193 274.924 205.375 278.682C200.557 282.409 194.723 284.273 187.875 284.273ZM187.875 274.273C194.663 274.273 199.936 271 203.693 264.455C207.451 257.909 209.33 248.576 209.33 236.455C209.33 228.394 208.466 221.53 206.739 215.864C205.042 210.197 202.587 205.879 199.375 202.909C196.193 199.939 192.36 198.455 187.875 198.455C181.148 198.455 175.89 201.773 172.102 208.409C168.314 215.015 166.42 224.364 166.42 236.455C166.42 244.515 167.269 251.364 168.966 257C170.663 262.636 173.102 266.924 176.284 269.864C179.496 272.803 183.36 274.273 187.875 274.273ZM267.875 284.273C261.027 284.273 255.193 282.409 250.375 278.682C245.557 274.924 241.875 269.485 239.33 262.364C236.784 255.212 235.511 246.576 235.511 236.455C235.511 226.394 236.784 217.803 239.33 210.682C241.905 203.53 245.602 198.076 250.42 194.318C255.269 190.53 261.087 188.636 267.875 188.636C274.663 188.636 280.466 190.53 285.284 194.318C290.133 198.076 293.83 203.53 296.375 210.682C298.951 217.803 300.239 226.394 300.239 236.455C300.239 246.576 298.966 255.212 296.42 262.364C293.875 269.485 290.193 274.924 285.375 278.682C280.557 282.409 274.723 284.273 267.875 284.273ZM267.875 274.273C274.663 274.273 279.936 271 283.693 264.455C287.451 257.909 289.33 248.576 289.33 236.455C289.33 228.394 288.466 221.53 286.739 215.864C285.042 210.197 282.587 205.879 279.375 202.909C276.193 199.939 272.36 198.455 267.875 198.455C261.148 198.455 255.89 201.773 252.102 208.409C248.314 215.015 246.42 224.364 246.42 236.455C246.42 244.515 247.269 251.364 248.966 257C250.663 262.636 253.102 266.924 256.284 269.864C259.496 272.803 263.36 274.273 267.875 274.273ZM347.875 284.273C341.027 284.273 335.193 282.409 330.375 278.682C325.557 274.924 321.875 269.485 319.33 262.364C316.784 255.212 315.511 246.576 315.511 236.455C315.511 226.394 316.784 217.803 319.33 210.682C321.905 203.53 325.602 198.076 330.42 194.318C335.269 190.53 341.087 188.636 347.875 188.636C354.663 188.636 360.466 190.53 365.284 194.318C370.133 198.076 373.83 203.53 376.375 210.682C378.951 217.803 380.239 226.394 380.239 236.455C380.239 246.576 378.966 255.212 376.42 262.364C373.875 269.485 370.193 274.924 365.375 278.682C360.557 282.409 354.723 284.273 347.875 284.273ZM347.875 274.273C354.663 274.273 359.936 271 363.693 264.455C367.451 257.909 369.33 248.576 369.33 236.455C369.33 228.394 368.466 221.53 366.739 215.864C365.042 210.197 362.587 205.879 359.375 202.909C356.193 199.939 352.36 198.455 347.875 198.455C341.148 198.455 335.89 201.773 332.102 208.409C328.314 215.015 326.42 224.364 326.42 236.455C326.42 244.515 327.269 251.364 328.966 257C330.663 262.636 333.102 266.924 336.284 269.864C339.496 272.803 343.36 274.273 347.875 274.273Z" fill="#F50100"/>
<path d="M117.727 284.273C112.394 284.273 107.591 283.212 103.318 281.091C99.0455 278.97 95.6212 276.061 93.0455 272.364C90.4697 268.667 89.0606 264.455 88.8182 259.727H99.7273C100.152 263.939 102.061 267.424 105.455 270.182C108.879 272.909 112.97 274.273 117.727 274.273C121.545 274.273 124.939 273.379 127.909 271.591C130.909 269.803 133.258 267.348 134.955 264.227C136.682 261.076 137.545 257.515 137.545 253.545C137.545 249.485 136.652 245.864 134.864 242.682C133.106 239.47 130.682 236.939 127.591 235.091C124.5 233.242 120.97 232.303 117 232.273C114.152 232.242 111.227 232.682 108.227 233.591C105.227 234.47 102.758 235.606 100.818 237L90.2727 235.727L95.9091 189.909H144.273V199.909H105.364L102.091 227.364H102.636C104.545 225.848 106.939 224.591 109.818 223.591C112.697 222.591 115.697 222.091 118.818 222.091C124.515 222.091 129.591 223.455 134.045 226.182C138.53 228.879 142.045 232.576 144.591 237.273C147.167 241.97 148.455 247.333 148.455 253.364C148.455 259.303 147.121 264.606 144.455 269.273C141.818 273.909 138.182 277.576 133.545 280.273C128.909 282.939 123.636 284.273 117.727 284.273ZM196.875 284.273C190.027 284.273 184.193 282.409 179.375 278.682C174.557 274.924 170.875 269.485 168.33 262.364C165.784 255.212 164.511 246.576 164.511 236.455C164.511 226.394 165.784 217.803 168.33 210.682C170.905 203.53 174.602 198.076 179.42 194.318C184.269 190.53 190.087 188.636 196.875 188.636C203.663 188.636 209.466 190.53 214.284 194.318C219.133 198.076 222.83 203.53 225.375 210.682C227.951 217.803 229.239 226.394 229.239 236.455C229.239 246.576 227.966 255.212 225.42 262.364C222.875 269.485 219.193 274.924 214.375 278.682C209.557 282.409 203.723 284.273 196.875 284.273ZM196.875 274.273C203.663 274.273 208.936 271 212.693 264.455C216.451 257.909 218.33 248.576 218.33 236.455C218.33 228.394 217.466 221.53 215.739 215.864C214.042 210.197 211.587 205.879 208.375 202.909C205.193 199.939 201.36 198.455 196.875 198.455C190.148 198.455 184.89 201.773 181.102 208.409C177.314 215.015 175.42 224.364 175.42 236.455C175.42 244.515 176.269 251.364 177.966 257C179.663 262.636 182.102 266.924 185.284 269.864C188.496 272.803 192.36 274.273 196.875 274.273ZM276.875 284.273C270.027 284.273 264.193 282.409 259.375 278.682C254.557 274.924 250.875 269.485 248.33 262.364C245.784 255.212 244.511 246.576 244.511 236.455C244.511 226.394 245.784 217.803 248.33 210.682C250.905 203.53 254.602 198.076 259.42 194.318C264.269 190.53 270.087 188.636 276.875 188.636C283.663 188.636 289.466 190.53 294.284 194.318C299.133 198.076 302.83 203.53 305.375 210.682C307.951 217.803 309.239 226.394 309.239 236.455C309.239 246.576 307.966 255.212 305.42 262.364C302.875 269.485 299.193 274.924 294.375 278.682C289.557 282.409 283.723 284.273 276.875 284.273ZM276.875 274.273C283.663 274.273 288.936 271 292.693 264.455C296.451 257.909 298.33 248.576 298.33 236.455C298.33 228.394 297.466 221.53 295.739 215.864C294.042 210.197 291.587 205.879 288.375 202.909C285.193 199.939 281.36 198.455 276.875 198.455C270.148 198.455 264.89 201.773 261.102 208.409C257.314 215.015 255.42 224.364 255.42 236.455C255.42 244.515 256.269 251.364 257.966 257C259.663 262.636 262.102 266.924 265.284 269.864C268.496 272.803 272.36 274.273 276.875 274.273ZM356.875 284.273C350.027 284.273 344.193 282.409 339.375 278.682C334.557 274.924 330.875 269.485 328.33 262.364C325.784 255.212 324.511 246.576 324.511 236.455C324.511 226.394 325.784 217.803 328.33 210.682C330.905 203.53 334.602 198.076 339.42 194.318C344.269 190.53 350.087 188.636 356.875 188.636C363.663 188.636 369.466 190.53 374.284 194.318C379.133 198.076 382.83 203.53 385.375 210.682C387.951 217.803 389.239 226.394 389.239 236.455C389.239 246.576 387.966 255.212 385.42 262.364C382.875 269.485 379.193 274.924 374.375 278.682C369.557 282.409 363.723 284.273 356.875 284.273ZM356.875 274.273C363.663 274.273 368.936 271 372.693 264.455C376.451 257.909 378.33 248.576 378.33 236.455C378.33 228.394 377.466 221.53 375.739 215.864C374.042 210.197 371.587 205.879 368.375 202.909C365.193 199.939 361.36 198.455 356.875 198.455C350.148 198.455 344.89 201.773 341.102 208.409C337.314 215.015 335.42 224.364 335.42 236.455C335.42 244.515 336.269 251.364 337.966 257C339.663 262.636 342.102 266.924 345.284 269.864C348.496 272.803 352.36 274.273 356.875 274.273Z" fill="#FF8125"/>
<path d="M126.727 284.273C121.394 284.273 116.591 283.212 112.318 281.091C108.045 278.97 104.621 276.061 102.045 272.364C99.4697 268.667 98.0606 264.455 97.8182 259.727H108.727C109.152 263.939 111.061 267.424 114.455 270.182C117.879 272.909 121.97 274.273 126.727 274.273C130.545 274.273 133.939 273.379 136.909 271.591C139.909 269.803 142.258 267.348 143.955 264.227C145.682 261.076 146.545 257.515 146.545 253.545C146.545 249.485 145.652 245.864 143.864 242.682C142.106 239.47 139.682 236.939 136.591 235.091C133.5 233.242 129.97 232.303 126 232.273C123.152 232.242 120.227 232.682 117.227 233.591C114.227 234.47 111.758 235.606 109.818 237L99.2727 235.727L104.909 189.909H153.273V199.909H114.364L111.091 227.364H111.636C113.545 225.848 115.939 224.591 118.818 223.591C121.697 222.591 124.697 222.091 127.818 222.091C133.515 222.091 138.591 223.455 143.045 226.182C147.53 228.879 151.045 232.576 153.591 237.273C156.167 241.97 157.455 247.333 157.455 253.364C157.455 259.303 156.121 264.606 153.455 269.273C150.818 273.909 147.182 277.576 142.545 280.273C137.909 282.939 132.636 284.273 126.727 284.273ZM205.875 284.273C199.027 284.273 193.193 282.409 188.375 278.682C183.557 274.924 179.875 269.485 177.33 262.364C174.784 255.212 173.511 246.576 173.511 236.455C173.511 226.394 174.784 217.803 177.33 210.682C179.905 203.53 183.602 198.076 188.42 194.318C193.269 190.53 199.087 188.636 205.875 188.636C212.663 188.636 218.466 190.53 223.284 194.318C228.133 198.076 231.83 203.53 234.375 210.682C236.951 217.803 238.239 226.394 238.239 236.455C238.239 246.576 236.966 255.212 234.42 262.364C231.875 269.485 228.193 274.924 223.375 278.682C218.557 282.409 212.723 284.273 205.875 284.273ZM205.875 274.273C212.663 274.273 217.936 271 221.693 264.455C225.451 257.909 227.33 248.576 227.33 236.455C227.33 228.394 226.466 221.53 224.739 215.864C223.042 210.197 220.587 205.879 217.375 202.909C214.193 199.939 210.36 198.455 205.875 198.455C199.148 198.455 193.89 201.773 190.102 208.409C186.314 215.015 184.42 224.364 184.42 236.455C184.42 244.515 185.269 251.364 186.966 257C188.663 262.636 191.102 266.924 194.284 269.864C197.496 272.803 201.36 274.273 205.875 274.273ZM285.875 284.273C279.027 284.273 273.193 282.409 268.375 278.682C263.557 274.924 259.875 269.485 257.33 262.364C254.784 255.212 253.511 246.576 253.511 236.455C253.511 226.394 254.784 217.803 257.33 210.682C259.905 203.53 263.602 198.076 268.42 194.318C273.269 190.53 279.087 188.636 285.875 188.636C292.663 188.636 298.466 190.53 303.284 194.318C308.133 198.076 311.83 203.53 314.375 210.682C316.951 217.803 318.239 226.394 318.239 236.455C318.239 246.576 316.966 255.212 314.42 262.364C311.875 269.485 308.193 274.924 303.375 278.682C298.557 282.409 292.723 284.273 285.875 284.273ZM285.875 274.273C292.663 274.273 297.936 271 301.693 264.455C305.451 257.909 307.33 248.576 307.33 236.455C307.33 228.394 306.466 221.53 304.739 215.864C303.042 210.197 300.587 205.879 297.375 202.909C294.193 199.939 290.36 198.455 285.875 198.455C279.148 198.455 273.89 201.773 270.102 208.409C266.314 215.015 264.42 224.364 264.42 236.455C264.42 244.515 265.269 251.364 266.966 257C268.663 262.636 271.102 266.924 274.284 269.864C277.496 272.803 281.36 274.273 285.875 274.273ZM365.875 284.273C359.027 284.273 353.193 282.409 348.375 278.682C343.557 274.924 339.875 269.485 337.33 262.364C334.784 255.212 333.511 246.576 333.511 236.455C333.511 226.394 334.784 217.803 337.33 210.682C339.905 203.53 343.602 198.076 348.42 194.318C353.269 190.53 359.087 188.636 365.875 188.636C372.663 188.636 378.466 190.53 383.284 194.318C388.133 198.076 391.83 203.53 394.375 210.682C396.951 217.803 398.239 226.394 398.239 236.455C398.239 246.576 396.966 255.212 394.42 262.364C391.875 269.485 388.193 274.924 383.375 278.682C378.557 282.409 372.723 284.273 365.875 284.273ZM365.875 274.273C372.663 274.273 377.936 271 381.693 264.455C385.451 257.909 387.33 248.576 387.33 236.455C387.33 228.394 386.466 221.53 384.739 215.864C383.042 210.197 380.587 205.879 377.375 202.909C374.193 199.939 370.36 198.455 365.875 198.455C359.148 198.455 353.89 201.773 350.102 208.409C346.314 215.015 344.42 224.364 344.42 236.455C344.42 244.515 345.269 251.364 346.966 257C348.663 262.636 351.102 266.924 354.284 269.864C357.496 272.803 361.36 274.273 365.875 274.273Z" fill="#FFB931"/>
<defs>
<filter id="filter0_d_602_17416" x="0.172607" y="31.9275" width="463.192" height="408.08" filterUnits="userSpaceOnUse" color-interpolation-filters="sRGB">
<feFlood flood-opacity="0" result="BackgroundImageFix"/>
<feColorMatrix in="SourceAlpha" type="matrix" values="0 0 0 0 0 0 0 0 0 0 0 0 0 0 0 0 0 0 127 0" result="hardAlpha"/>
<feOffset dy="4"/>
<feGaussianBlur stdDeviation="2"/>
<feComposite in2="hardAlpha" operator="out"/>
<feColorMatrix type="matrix" values="0 0 0 0 0 0 0 0 0 0 0 0 0 0 0 0 0 0 0.25 0"/>
<feBlend mode="normal" in2="BackgroundImageFix" result="effect1_dropShadow_602_17416"/>
<feBlend mode="normal" in="SourceGraphic" in2="effect1_dropShadow_602_17416" result="shape"/>
</filter>
</defs>
</svg>
