<svg width="464" height="464" viewBox="0 0 464 464" fill="none" xmlns="http://www.w3.org/2000/svg">
<g filter="url(#filter0_d_602_17415)">
<path d="M459.364 231.802L345.716 431.842L118.12 432.007L4.17269 232.133L117.821 32.0925L345.417 31.9274L459.364 231.802Z" fill="#9CADCE"/>
<path d="M345.126 32.4277L458.789 231.803L345.425 431.343L118.411 431.507L4.74798 232.132L118.112 32.5923L345.126 32.4277Z" stroke="#281F99"/>
</g>
<path d="M124.364 189.909V283H113.091V201.727H112.545L89.8182 216.818V205.364L113.091 189.909H124.364ZM181.5 284.273C174.652 284.273 168.818 282.409 164 278.682C159.182 274.924 155.5 269.485 152.955 262.364C150.409 255.212 149.136 246.576 149.136 236.455C149.136 226.394 150.409 217.803 152.955 210.682C155.53 203.53 159.227 198.076 164.045 194.318C168.894 190.53 174.712 188.636 181.5 188.636C188.288 188.636 194.091 190.53 198.909 194.318C203.758 198.076 207.455 203.53 210 210.682C212.576 217.803 213.864 226.394 213.864 236.455C213.864 246.576 212.591 255.212 210.045 262.364C207.5 269.485 203.818 274.924 199 278.682C194.182 282.409 188.348 284.273 181.5 284.273ZM181.5 274.273C188.288 274.273 193.561 271 197.318 264.455C201.076 257.909 202.955 248.576 202.955 236.455C202.955 228.394 202.091 221.53 200.364 215.864C198.667 210.197 196.212 205.879 193 202.909C189.818 199.939 185.985 198.455 181.5 198.455C174.773 198.455 169.515 201.773 165.727 208.409C161.939 215.015 160.045 224.364 160.045 236.455C160.045 244.515 160.894 251.364 162.591 257C164.288 262.636 166.727 266.924 169.909 269.864C173.121 272.803 176.985 274.273 181.5 274.273ZM261.5 284.273C254.652 284.273 248.818 282.409 244 278.682C239.182 274.924 235.5 269.485 232.955 262.364C230.409 255.212 229.136 246.576 229.136 236.455C229.136 226.394 230.409 217.803 232.955 210.682C235.53 203.53 239.227 198.076 244.045 194.318C248.894 190.53 254.712 188.636 261.5 188.636C268.288 188.636 274.091 190.53 278.909 194.318C283.758 198.076 287.455 203.53 290 210.682C292.576 217.803 293.864 226.394 293.864 236.455C293.864 246.576 292.591 255.212 290.045 262.364C287.5 269.485 283.818 274.924 279 278.682C274.182 282.409 268.348 284.273 261.5 284.273ZM261.5 274.273C268.288 274.273 273.561 271 277.318 264.455C281.076 257.909 282.955 248.576 282.955 236.455C282.955 228.394 282.091 221.53 280.364 215.864C278.667 210.197 276.212 205.879 273 202.909C269.818 199.939 265.985 198.455 261.5 198.455C254.773 198.455 249.515 201.773 245.727 208.409C241.939 215.015 240.045 224.364 240.045 236.455C240.045 244.515 240.894 251.364 242.591 257C244.288 262.636 246.727 266.924 249.909 269.864C253.121 272.803 256.985 274.273 261.5 274.273ZM341.5 284.273C334.652 284.273 328.818 282.409 324 278.682C319.182 274.924 315.5 269.485 312.955 262.364C310.409 255.212 309.136 246.576 309.136 236.455C309.136 226.394 310.409 217.803 312.955 210.682C315.53 203.53 319.227 198.076 324.045 194.318C328.894 190.53 334.712 188.636 341.5 188.636C348.288 188.636 354.091 190.53 358.909 194.318C363.758 198.076 367.455 203.53 370 210.682C372.576 217.803 373.864 226.394 373.864 236.455C373.864 246.576 372.591 255.212 370.045 262.364C367.5 269.485 363.818 274.924 359 278.682C354.182 282.409 348.348 284.273 341.5 284.273ZM341.5 274.273C348.288 274.273 353.561 271 357.318 264.455C361.076 257.909 362.955 248.576 362.955 236.455C362.955 228.394 362.091 221.53 360.364 215.864C358.667 210.197 356.212 205.879 353 202.909C349.818 199.939 345.985 198.455 341.5 198.455C334.773 198.455 329.515 201.773 325.727 208.409C321.939 215.015 320.045 224.364 320.045 236.455C320.045 244.515 320.894 251.364 322.591 257C324.288 262.636 326.727 266.924 329.909 269.864C333.121 272.803 336.985 274.273 341.5 274.273Z" fill="#F50100"/>
<path d="M133.364 189.909V283H122.091V201.727H121.545L98.8182 216.818V205.364L122.091 189.909H133.364ZM190.5 284.273C183.652 284.273 177.818 282.409 173 278.682C168.182 274.924 164.5 269.485 161.955 262.364C159.409 255.212 158.136 246.576 158.136 236.455C158.136 226.394 159.409 217.803 161.955 210.682C164.53 203.53 168.227 198.076 173.045 194.318C177.894 190.53 183.712 188.636 190.5 188.636C197.288 188.636 203.091 190.53 207.909 194.318C212.758 198.076 216.455 203.53 219 210.682C221.576 217.803 222.864 226.394 222.864 236.455C222.864 246.576 221.591 255.212 219.045 262.364C216.5 269.485 212.818 274.924 208 278.682C203.182 282.409 197.348 284.273 190.5 284.273ZM190.5 274.273C197.288 274.273 202.561 271 206.318 264.455C210.076 257.909 211.955 248.576 211.955 236.455C211.955 228.394 211.091 221.53 209.364 215.864C207.667 210.197 205.212 205.879 202 202.909C198.818 199.939 194.985 198.455 190.5 198.455C183.773 198.455 178.515 201.773 174.727 208.409C170.939 215.015 169.045 224.364 169.045 236.455C169.045 244.515 169.894 251.364 171.591 257C173.288 262.636 175.727 266.924 178.909 269.864C182.121 272.803 185.985 274.273 190.5 274.273ZM270.5 284.273C263.652 284.273 257.818 282.409 253 278.682C248.182 274.924 244.5 269.485 241.955 262.364C239.409 255.212 238.136 246.576 238.136 236.455C238.136 226.394 239.409 217.803 241.955 210.682C244.53 203.53 248.227 198.076 253.045 194.318C257.894 190.53 263.712 188.636 270.5 188.636C277.288 188.636 283.091 190.53 287.909 194.318C292.758 198.076 296.455 203.53 299 210.682C301.576 217.803 302.864 226.394 302.864 236.455C302.864 246.576 301.591 255.212 299.045 262.364C296.5 269.485 292.818 274.924 288 278.682C283.182 282.409 277.348 284.273 270.5 284.273ZM270.5 274.273C277.288 274.273 282.561 271 286.318 264.455C290.076 257.909 291.955 248.576 291.955 236.455C291.955 228.394 291.091 221.53 289.364 215.864C287.667 210.197 285.212 205.879 282 202.909C278.818 199.939 274.985 198.455 270.5 198.455C263.773 198.455 258.515 201.773 254.727 208.409C250.939 215.015 249.045 224.364 249.045 236.455C249.045 244.515 249.894 251.364 251.591 257C253.288 262.636 255.727 266.924 258.909 269.864C262.121 272.803 265.985 274.273 270.5 274.273ZM350.5 284.273C343.652 284.273 337.818 282.409 333 278.682C328.182 274.924 324.5 269.485 321.955 262.364C319.409 255.212 318.136 246.576 318.136 236.455C318.136 226.394 319.409 217.803 321.955 210.682C324.53 203.53 328.227 198.076 333.045 194.318C337.894 190.53 343.712 188.636 350.5 188.636C357.288 188.636 363.091 190.53 367.909 194.318C372.758 198.076 376.455 203.53 379 210.682C381.576 217.803 382.864 226.394 382.864 236.455C382.864 246.576 381.591 255.212 379.045 262.364C376.5 269.485 372.818 274.924 368 278.682C363.182 282.409 357.348 284.273 350.5 284.273ZM350.5 274.273C357.288 274.273 362.561 271 366.318 264.455C370.076 257.909 371.955 248.576 371.955 236.455C371.955 228.394 371.091 221.53 369.364 215.864C367.667 210.197 365.212 205.879 362 202.909C358.818 199.939 354.985 198.455 350.5 198.455C343.773 198.455 338.515 201.773 334.727 208.409C330.939 215.015 329.045 224.364 329.045 236.455C329.045 244.515 329.894 251.364 331.591 257C333.288 262.636 335.727 266.924 338.909 269.864C342.121 272.803 345.985 274.273 350.5 274.273Z" fill="#FF8125"/>
<path d="M144.364 189.909V283H133.091V201.727H132.545L109.818 216.818V205.364L133.091 189.909H144.364ZM201.5 284.273C194.652 284.273 188.818 282.409 184 278.682C179.182 274.924 175.5 269.485 172.955 262.364C170.409 255.212 169.136 246.576 169.136 236.455C169.136 226.394 170.409 217.803 172.955 210.682C175.53 203.53 179.227 198.076 184.045 194.318C188.894 190.53 194.712 188.636 201.5 188.636C208.288 188.636 214.091 190.53 218.909 194.318C223.758 198.076 227.455 203.53 230 210.682C232.576 217.803 233.864 226.394 233.864 236.455C233.864 246.576 232.591 255.212 230.045 262.364C227.5 269.485 223.818 274.924 219 278.682C214.182 282.409 208.348 284.273 201.5 284.273ZM201.5 274.273C208.288 274.273 213.561 271 217.318 264.455C221.076 257.909 222.955 248.576 222.955 236.455C222.955 228.394 222.091 221.53 220.364 215.864C218.667 210.197 216.212 205.879 213 202.909C209.818 199.939 205.985 198.455 201.5 198.455C194.773 198.455 189.515 201.773 185.727 208.409C181.939 215.015 180.045 224.364 180.045 236.455C180.045 244.515 180.894 251.364 182.591 257C184.288 262.636 186.727 266.924 189.909 269.864C193.121 272.803 196.985 274.273 201.5 274.273ZM281.5 284.273C274.652 284.273 268.818 282.409 264 278.682C259.182 274.924 255.5 269.485 252.955 262.364C250.409 255.212 249.136 246.576 249.136 236.455C249.136 226.394 250.409 217.803 252.955 210.682C255.53 203.53 259.227 198.076 264.045 194.318C268.894 190.53 274.712 188.636 281.5 188.636C288.288 188.636 294.091 190.53 298.909 194.318C303.758 198.076 307.455 203.53 310 210.682C312.576 217.803 313.864 226.394 313.864 236.455C313.864 246.576 312.591 255.212 310.045 262.364C307.5 269.485 303.818 274.924 299 278.682C294.182 282.409 288.348 284.273 281.5 284.273ZM281.5 274.273C288.288 274.273 293.561 271 297.318 264.455C301.076 257.909 302.955 248.576 302.955 236.455C302.955 228.394 302.091 221.53 300.364 215.864C298.667 210.197 296.212 205.879 293 202.909C289.818 199.939 285.985 198.455 281.5 198.455C274.773 198.455 269.515 201.773 265.727 208.409C261.939 215.015 260.045 224.364 260.045 236.455C260.045 244.515 260.894 251.364 262.591 257C264.288 262.636 266.727 266.924 269.909 269.864C273.121 272.803 276.985 274.273 281.5 274.273ZM361.5 284.273C354.652 284.273 348.818 282.409 344 278.682C339.182 274.924 335.5 269.485 332.955 262.364C330.409 255.212 329.136 246.576 329.136 236.455C329.136 226.394 330.409 217.803 332.955 210.682C335.53 203.53 339.227 198.076 344.045 194.318C348.894 190.53 354.712 188.636 361.5 188.636C368.288 188.636 374.091 190.53 378.909 194.318C383.758 198.076 387.455 203.53 390 210.682C392.576 217.803 393.864 226.394 393.864 236.455C393.864 246.576 392.591 255.212 390.045 262.364C387.5 269.485 383.818 274.924 379 278.682C374.182 282.409 368.348 284.273 361.5 284.273ZM361.5 274.273C368.288 274.273 373.561 271 377.318 264.455C381.076 257.909 382.955 248.576 382.955 236.455C382.955 228.394 382.091 221.53 380.364 215.864C378.667 210.197 376.212 205.879 373 202.909C369.818 199.939 365.985 198.455 361.5 198.455C354.773 198.455 349.515 201.773 345.727 208.409C341.939 215.015 340.045 224.364 340.045 236.455C340.045 244.515 340.894 251.364 342.591 257C344.288 262.636 346.727 266.924 349.909 269.864C353.121 272.803 356.985 274.273 361.5 274.273Z" fill="#FFB931"/>
<defs>
<filter id="filter0_d_602_17415" x="0.172729" y="31.9275" width="463.192" height="408.08" filterUnits="userSpaceOnUse" color-interpolation-filters="sRGB">
<feFlood flood-opacity="0" result="BackgroundImageFix"/>
<feColorMatrix in="SourceAlpha" type="matrix" values="0 0 0 0 0 0 0 0 0 0 0 0 0 0 0 0 0 0 127 0" result="hardAlpha"/>
<feOffset dy="4"/>
<feGaussianBlur stdDeviation="2"/>
<feComposite in2="hardAlpha" operator="out"/>
<feColorMatrix type="matrix" values="0 0 0 0 0 0 0 0 0 0 0 0 0 0 0 0 0 0 0.25 0"/>
<feBlend mode="normal" in2="BackgroundImageFix" result="effect1_dropShadow_602_17415"/>
<feBlend mode="normal" in="SourceGraphic" in2="effect1_dropShadow_602_17415" result="shape"/>
</filter>
</defs>
</svg>
