<svg width="464" height="464" viewBox="0 0 464 464" fill="none" xmlns="http://www.w3.org/2000/svg">
<g filter="url(#filter0_d_572_17439)">
<path d="M459.365 231.802L345.716 431.842L118.121 432.008L4.17289 232.133L117.821 32.0926L345.417 31.9275L459.365 231.802Z" fill="#9CADCE"/>
<path d="M345.127 32.4277L458.789 231.803L345.425 431.343L118.411 431.507L4.74817 232.132L118.112 32.5924L345.127 32.4277Z" stroke="#281F99"/>
</g>
<path d="M159.364 200.772V293.863H148.091V212.591H147.545L124.818 227.681V216.227L148.091 200.772H159.364ZM216.5 295.136C209.652 295.136 203.818 293.272 199 289.545C194.182 285.788 190.5 280.348 187.955 273.227C185.409 266.075 184.136 257.439 184.136 247.318C184.136 237.257 185.409 228.666 187.955 221.545C190.53 214.394 194.227 208.939 199.045 205.181C203.894 201.394 209.712 199.5 216.5 199.5C223.288 199.5 229.091 201.394 233.909 205.181C238.758 208.939 242.455 214.394 245 221.545C247.576 228.666 248.864 237.257 248.864 247.318C248.864 257.439 247.591 266.075 245.045 273.227C242.5 280.348 238.818 285.788 234 289.545C229.182 293.272 223.348 295.136 216.5 295.136ZM216.5 285.136C223.288 285.136 228.561 281.863 232.318 275.318C236.076 268.772 237.955 259.439 237.955 247.318C237.955 239.257 237.091 232.394 235.364 226.727C233.667 221.06 231.212 216.742 228 213.772C224.818 210.803 220.985 209.318 216.5 209.318C209.773 209.318 204.515 212.636 200.727 219.272C196.939 225.878 195.045 235.227 195.045 247.318C195.045 255.378 195.894 262.227 197.591 267.863C199.288 273.5 201.727 277.788 204.909 280.727C208.121 283.666 211.985 285.136 216.5 285.136ZM296.5 295.136C289.652 295.136 283.818 293.272 279 289.545C274.182 285.788 270.5 280.348 267.955 273.227C265.409 266.075 264.136 257.439 264.136 247.318C264.136 237.257 265.409 228.666 267.955 221.545C270.53 214.394 274.227 208.939 279.045 205.181C283.894 201.394 289.712 199.5 296.5 199.5C303.288 199.5 309.091 201.394 313.909 205.181C318.758 208.939 322.455 214.394 325 221.545C327.576 228.666 328.864 237.257 328.864 247.318C328.864 257.439 327.591 266.075 325.045 273.227C322.5 280.348 318.818 285.788 314 289.545C309.182 293.272 303.348 295.136 296.5 295.136ZM296.5 285.136C303.288 285.136 308.561 281.863 312.318 275.318C316.076 268.772 317.955 259.439 317.955 247.318C317.955 239.257 317.091 232.394 315.364 226.727C313.667 221.06 311.212 216.742 308 213.772C304.818 210.803 300.985 209.318 296.5 209.318C289.773 209.318 284.515 212.636 280.727 219.272C276.939 225.878 275.045 235.227 275.045 247.318C275.045 255.378 275.894 262.227 277.591 267.863C279.288 273.5 281.727 277.788 284.909 280.727C288.121 283.666 291.985 285.136 296.5 285.136Z" fill="#F50100"/>
<path d="M170.364 200.772V293.863H159.091V212.591H158.545L135.818 227.681V216.227L159.091 200.772H170.364ZM227.5 295.136C220.652 295.136 214.818 293.272 210 289.545C205.182 285.788 201.5 280.348 198.955 273.227C196.409 266.075 195.136 257.439 195.136 247.318C195.136 237.257 196.409 228.666 198.955 221.545C201.53 214.394 205.227 208.939 210.045 205.181C214.894 201.394 220.712 199.5 227.5 199.5C234.288 199.5 240.091 201.394 244.909 205.181C249.758 208.939 253.455 214.394 256 221.545C258.576 228.666 259.864 237.257 259.864 247.318C259.864 257.439 258.591 266.075 256.045 273.227C253.5 280.348 249.818 285.788 245 289.545C240.182 293.272 234.348 295.136 227.5 295.136ZM227.5 285.136C234.288 285.136 239.561 281.863 243.318 275.318C247.076 268.772 248.955 259.439 248.955 247.318C248.955 239.257 248.091 232.394 246.364 226.727C244.667 221.06 242.212 216.742 239 213.772C235.818 210.803 231.985 209.318 227.5 209.318C220.773 209.318 215.515 212.636 211.727 219.272C207.939 225.878 206.045 235.227 206.045 247.318C206.045 255.378 206.894 262.227 208.591 267.863C210.288 273.5 212.727 277.788 215.909 280.727C219.121 283.666 222.985 285.136 227.5 285.136ZM307.5 295.136C300.652 295.136 294.818 293.272 290 289.545C285.182 285.788 281.5 280.348 278.955 273.227C276.409 266.075 275.136 257.439 275.136 247.318C275.136 237.257 276.409 228.666 278.955 221.545C281.53 214.394 285.227 208.939 290.045 205.181C294.894 201.394 300.712 199.5 307.5 199.5C314.288 199.5 320.091 201.394 324.909 205.181C329.758 208.939 333.455 214.394 336 221.545C338.576 228.666 339.864 237.257 339.864 247.318C339.864 257.439 338.591 266.075 336.045 273.227C333.5 280.348 329.818 285.788 325 289.545C320.182 293.272 314.348 295.136 307.5 295.136ZM307.5 285.136C314.288 285.136 319.561 281.863 323.318 275.318C327.076 268.772 328.955 259.439 328.955 247.318C328.955 239.257 328.091 232.394 326.364 226.727C324.667 221.06 322.212 216.742 319 213.772C315.818 210.803 311.985 209.318 307.5 209.318C300.773 209.318 295.515 212.636 291.727 219.272C287.939 225.878 286.045 235.227 286.045 247.318C286.045 255.378 286.894 262.227 288.591 267.863C290.288 273.5 292.727 277.788 295.909 280.727C299.121 283.666 302.985 285.136 307.5 285.136Z" fill="#FF8125"/>
<path d="M181.364 200.772V293.863H170.091V212.591H169.545L146.818 227.681V216.227L170.091 200.772H181.364ZM238.5 295.136C231.652 295.136 225.818 293.272 221 289.545C216.182 285.788 212.5 280.348 209.955 273.227C207.409 266.075 206.136 257.439 206.136 247.318C206.136 237.257 207.409 228.666 209.955 221.545C212.53 214.394 216.227 208.939 221.045 205.181C225.894 201.394 231.712 199.5 238.5 199.5C245.288 199.5 251.091 201.394 255.909 205.181C260.758 208.939 264.455 214.394 267 221.545C269.576 228.666 270.864 237.257 270.864 247.318C270.864 257.439 269.591 266.075 267.045 273.227C264.5 280.348 260.818 285.788 256 289.545C251.182 293.272 245.348 295.136 238.5 295.136ZM238.5 285.136C245.288 285.136 250.561 281.863 254.318 275.318C258.076 268.772 259.955 259.439 259.955 247.318C259.955 239.257 259.091 232.394 257.364 226.727C255.667 221.06 253.212 216.742 250 213.772C246.818 210.803 242.985 209.318 238.5 209.318C231.773 209.318 226.515 212.636 222.727 219.272C218.939 225.878 217.045 235.227 217.045 247.318C217.045 255.378 217.894 262.227 219.591 267.863C221.288 273.5 223.727 277.788 226.909 280.727C230.121 283.666 233.985 285.136 238.5 285.136ZM318.5 295.136C311.652 295.136 305.818 293.272 301 289.545C296.182 285.788 292.5 280.348 289.955 273.227C287.409 266.075 286.136 257.439 286.136 247.318C286.136 237.257 287.409 228.666 289.955 221.545C292.53 214.394 296.227 208.939 301.045 205.181C305.894 201.394 311.712 199.5 318.5 199.5C325.288 199.5 331.091 201.394 335.909 205.181C340.758 208.939 344.455 214.394 347 221.545C349.576 228.666 350.864 237.257 350.864 247.318C350.864 257.439 349.591 266.075 347.045 273.227C344.5 280.348 340.818 285.788 336 289.545C331.182 293.272 325.348 295.136 318.5 295.136ZM318.5 285.136C325.288 285.136 330.561 281.863 334.318 275.318C338.076 268.772 339.955 259.439 339.955 247.318C339.955 239.257 339.091 232.394 337.364 226.727C335.667 221.06 333.212 216.742 330 213.772C326.818 210.803 322.985 209.318 318.5 209.318C311.773 209.318 306.515 212.636 302.727 219.272C298.939 225.878 297.045 235.227 297.045 247.318C297.045 255.378 297.894 262.227 299.591 267.863C301.288 273.5 303.727 277.788 306.909 280.727C310.121 283.666 313.985 285.136 318.5 285.136Z" fill="#FFB931"/>
<defs>
<filter id="filter0_d_572_17439" x="0.172882" y="31.9275" width="463.192" height="408.08" filterUnits="userSpaceOnUse" color-interpolation-filters="sRGB">
<feFlood flood-opacity="0" result="BackgroundImageFix"/>
<feColorMatrix in="SourceAlpha" type="matrix" values="0 0 0 0 0 0 0 0 0 0 0 0 0 0 0 0 0 0 127 0" result="hardAlpha"/>
<feOffset dy="4"/>
<feGaussianBlur stdDeviation="2"/>
<feComposite in2="hardAlpha" operator="out"/>
<feColorMatrix type="matrix" values="0 0 0 0 0 0 0 0 0 0 0 0 0 0 0 0 0 0 0.25 0"/>
<feBlend mode="normal" in2="BackgroundImageFix" result="effect1_dropShadow_572_17439"/>
<feBlend mode="normal" in="SourceGraphic" in2="effect1_dropShadow_572_17439" result="shape"/>
</filter>
</defs>
</svg>
