<svg width="464" height="463" viewBox="0 0 464 463" fill="none" xmlns="http://www.w3.org/2000/svg">
<g filter="url(#filter0_d_572_17492)">
<path d="M459.365 230.957L345.716 431.054L118.121 431.219L4.17293 231.287L117.821 31.19L345.417 31.0249L459.365 230.957Z" fill="#9CADCE"/>
<path d="M345.126 31.5251L458.789 230.957L345.425 430.554L118.411 430.719L4.74819 231.287L118.112 31.6898L345.126 31.5251Z" stroke="#281F99"/>
</g>
<path d="M232.727 286.273C227.394 286.273 222.591 285.212 218.318 283.091C214.045 280.97 210.621 278.061 208.045 274.364C205.47 270.667 204.061 266.455 203.818 261.727H214.727C215.152 265.939 217.061 269.424 220.455 272.182C223.879 274.909 227.97 276.273 232.727 276.273C236.545 276.273 239.939 275.379 242.909 273.591C245.909 271.803 248.258 269.348 249.955 266.227C251.682 263.076 252.545 259.515 252.545 255.545C252.545 251.485 251.652 247.864 249.864 244.682C248.106 241.47 245.682 238.939 242.591 237.091C239.5 235.242 235.97 234.303 232 234.273C229.152 234.242 226.227 234.682 223.227 235.591C220.227 236.47 217.758 237.606 215.818 239L205.273 237.727L210.909 191.909H259.273V201.909H220.364L217.091 229.364H217.636C219.545 227.848 221.939 226.591 224.818 225.591C227.697 224.591 230.697 224.091 233.818 224.091C239.515 224.091 244.591 225.455 249.045 228.182C253.53 230.879 257.045 234.576 259.591 239.273C262.167 243.97 263.455 249.333 263.455 255.364C263.455 261.303 262.121 266.606 259.455 271.273C256.818 275.909 253.182 279.576 248.545 282.273C243.909 284.939 238.636 286.273 232.727 286.273Z" fill="#F50100"/>
<path d="M242.727 286.273C237.394 286.273 232.591 285.212 228.318 283.091C224.045 280.97 220.621 278.061 218.045 274.364C215.47 270.667 214.061 266.455 213.818 261.727H224.727C225.152 265.939 227.061 269.424 230.455 272.182C233.879 274.909 237.97 276.273 242.727 276.273C246.545 276.273 249.939 275.379 252.909 273.591C255.909 271.803 258.258 269.348 259.955 266.227C261.682 263.076 262.545 259.515 262.545 255.545C262.545 251.485 261.652 247.864 259.864 244.682C258.106 241.47 255.682 238.939 252.591 237.091C249.5 235.242 245.97 234.303 242 234.273C239.152 234.242 236.227 234.682 233.227 235.591C230.227 236.47 227.758 237.606 225.818 239L215.273 237.727L220.909 191.909H269.273V201.909H230.364L227.091 229.364H227.636C229.545 227.848 231.939 226.591 234.818 225.591C237.697 224.591 240.697 224.091 243.818 224.091C249.515 224.091 254.591 225.455 259.045 228.182C263.53 230.879 267.045 234.576 269.591 239.273C272.167 243.97 273.455 249.333 273.455 255.364C273.455 261.303 272.121 266.606 269.455 271.273C266.818 275.909 263.182 279.576 258.545 282.273C253.909 284.939 248.636 286.273 242.727 286.273Z" fill="#FF8125"/>
<path d="M253.727 286.273C248.394 286.273 243.591 285.212 239.318 283.091C235.045 280.97 231.621 278.061 229.045 274.364C226.47 270.667 225.061 266.455 224.818 261.727H235.727C236.152 265.939 238.061 269.424 241.455 272.182C244.879 274.909 248.97 276.273 253.727 276.273C257.545 276.273 260.939 275.379 263.909 273.591C266.909 271.803 269.258 269.348 270.955 266.227C272.682 263.076 273.545 259.515 273.545 255.545C273.545 251.485 272.652 247.864 270.864 244.682C269.106 241.47 266.682 238.939 263.591 237.091C260.5 235.242 256.97 234.303 253 234.273C250.152 234.242 247.227 234.682 244.227 235.591C241.227 236.47 238.758 237.606 236.818 239L226.273 237.727L231.909 191.909H280.273V201.909H241.364L238.091 229.364H238.636C240.545 227.848 242.939 226.591 245.818 225.591C248.697 224.591 251.697 224.091 254.818 224.091C260.515 224.091 265.591 225.455 270.045 228.182C274.53 230.879 278.045 234.576 280.591 239.273C283.167 243.97 284.455 249.333 284.455 255.364C284.455 261.303 283.121 266.606 280.455 271.273C277.818 275.909 274.182 279.576 269.545 282.273C264.909 284.939 259.636 286.273 253.727 286.273Z" fill="#FFB931"/>
<defs>
<filter id="filter0_d_572_17492" x="0.172974" y="31.0249" width="463.192" height="408.194" filterUnits="userSpaceOnUse" color-interpolation-filters="sRGB">
<feFlood flood-opacity="0" result="BackgroundImageFix"/>
<feColorMatrix in="SourceAlpha" type="matrix" values="0 0 0 0 0 0 0 0 0 0 0 0 0 0 0 0 0 0 127 0" result="hardAlpha"/>
<feOffset dy="4"/>
<feGaussianBlur stdDeviation="2"/>
<feComposite in2="hardAlpha" operator="out"/>
<feColorMatrix type="matrix" values="0 0 0 0 0 0 0 0 0 0 0 0 0 0 0 0 0 0 0.25 0"/>
<feBlend mode="normal" in2="BackgroundImageFix" result="effect1_dropShadow_572_17492"/>
<feBlend mode="normal" in="SourceGraphic" in2="effect1_dropShadow_572_17492" result="shape"/>
</filter>
</defs>
</svg>
