<svg width="464" height="464" viewBox="0 0 464 464" fill="none" xmlns="http://www.w3.org/2000/svg">
<g filter="url(#filter0_d_602_17414)">
<path d="M459.364 231.802L345.716 431.842L118.12 432.007L4.17269 232.133L117.821 32.0925L345.417 31.9274L459.364 231.802Z" fill="#9CADCE"/>
<path d="M345.126 32.4277L458.789 231.803L345.425 431.343L118.411 431.507L4.74798 232.132L118.112 32.5923L345.126 32.4277Z" stroke="#281F99"/>
</g>
<path d="M159.727 283.273C154.394 283.273 149.591 282.212 145.318 280.091C141.045 277.97 137.621 275.061 135.045 271.364C132.47 267.667 131.061 263.455 130.818 258.727H141.727C142.152 262.939 144.061 266.424 147.455 269.182C150.879 271.909 154.97 273.273 159.727 273.273C163.545 273.273 166.939 272.379 169.909 270.591C172.909 268.803 175.258 266.348 176.955 263.227C178.682 260.076 179.545 256.515 179.545 252.545C179.545 248.485 178.652 244.864 176.864 241.682C175.106 238.47 172.682 235.939 169.591 234.091C166.5 232.242 162.97 231.303 159 231.273C156.152 231.242 153.227 231.682 150.227 232.591C147.227 233.47 144.758 234.606 142.818 236L132.273 234.727L137.909 188.909H186.273V198.909H147.364L144.091 226.364H144.636C146.545 224.848 148.939 223.591 151.818 222.591C154.697 221.591 157.697 221.091 160.818 221.091C166.515 221.091 171.591 222.455 176.045 225.182C180.53 227.879 184.045 231.576 186.591 236.273C189.167 240.97 190.455 246.333 190.455 252.364C190.455 258.303 189.121 263.606 186.455 268.273C183.818 272.909 180.182 276.576 175.545 279.273C170.909 281.939 165.636 283.273 159.727 283.273ZM238.875 283.273C232.027 283.273 226.193 281.409 221.375 277.682C216.557 273.924 212.875 268.485 210.33 261.364C207.784 254.212 206.511 245.576 206.511 235.455C206.511 225.394 207.784 216.803 210.33 209.682C212.905 202.53 216.602 197.076 221.42 193.318C226.269 189.53 232.087 187.636 238.875 187.636C245.663 187.636 251.466 189.53 256.284 193.318C261.133 197.076 264.83 202.53 267.375 209.682C269.951 216.803 271.239 225.394 271.239 235.455C271.239 245.576 269.966 254.212 267.42 261.364C264.875 268.485 261.193 273.924 256.375 277.682C251.557 281.409 245.723 283.273 238.875 283.273ZM238.875 273.273C245.663 273.273 250.936 270 254.693 263.455C258.451 256.909 260.33 247.576 260.33 235.455C260.33 227.394 259.466 220.53 257.739 214.864C256.042 209.197 253.587 204.879 250.375 201.909C247.193 198.939 243.36 197.455 238.875 197.455C232.148 197.455 226.89 200.773 223.102 207.409C219.314 214.015 217.42 223.364 217.42 235.455C217.42 243.515 218.269 250.364 219.966 256C221.663 261.636 224.102 265.924 227.284 268.864C230.496 271.803 234.36 273.273 238.875 273.273ZM318.875 283.273C312.027 283.273 306.193 281.409 301.375 277.682C296.557 273.924 292.875 268.485 290.33 261.364C287.784 254.212 286.511 245.576 286.511 235.455C286.511 225.394 287.784 216.803 290.33 209.682C292.905 202.53 296.602 197.076 301.42 193.318C306.269 189.53 312.087 187.636 318.875 187.636C325.663 187.636 331.466 189.53 336.284 193.318C341.133 197.076 344.83 202.53 347.375 209.682C349.951 216.803 351.239 225.394 351.239 235.455C351.239 245.576 349.966 254.212 347.42 261.364C344.875 268.485 341.193 273.924 336.375 277.682C331.557 281.409 325.723 283.273 318.875 283.273ZM318.875 273.273C325.663 273.273 330.936 270 334.693 263.455C338.451 256.909 340.33 247.576 340.33 235.455C340.33 227.394 339.466 220.53 337.739 214.864C336.042 209.197 333.587 204.879 330.375 201.909C327.193 198.939 323.36 197.455 318.875 197.455C312.148 197.455 306.89 200.773 303.102 207.409C299.314 214.015 297.42 223.364 297.42 235.455C297.42 243.515 298.269 250.364 299.966 256C301.663 261.636 304.102 265.924 307.284 268.864C310.496 271.803 314.36 273.273 318.875 273.273Z" fill="#F50100"/>
<path d="M166.727 283.273C161.394 283.273 156.591 282.212 152.318 280.091C148.045 277.97 144.621 275.061 142.045 271.364C139.47 267.667 138.061 263.455 137.818 258.727H148.727C149.152 262.939 151.061 266.424 154.455 269.182C157.879 271.909 161.97 273.273 166.727 273.273C170.545 273.273 173.939 272.379 176.909 270.591C179.909 268.803 182.258 266.348 183.955 263.227C185.682 260.076 186.545 256.515 186.545 252.545C186.545 248.485 185.652 244.864 183.864 241.682C182.106 238.47 179.682 235.939 176.591 234.091C173.5 232.242 169.97 231.303 166 231.273C163.152 231.242 160.227 231.682 157.227 232.591C154.227 233.47 151.758 234.606 149.818 236L139.273 234.727L144.909 188.909H193.273V198.909H154.364L151.091 226.364H151.636C153.545 224.848 155.939 223.591 158.818 222.591C161.697 221.591 164.697 221.091 167.818 221.091C173.515 221.091 178.591 222.455 183.045 225.182C187.53 227.879 191.045 231.576 193.591 236.273C196.167 240.97 197.455 246.333 197.455 252.364C197.455 258.303 196.121 263.606 193.455 268.273C190.818 272.909 187.182 276.576 182.545 279.273C177.909 281.939 172.636 283.273 166.727 283.273ZM245.875 283.273C239.027 283.273 233.193 281.409 228.375 277.682C223.557 273.924 219.875 268.485 217.33 261.364C214.784 254.212 213.511 245.576 213.511 235.455C213.511 225.394 214.784 216.803 217.33 209.682C219.905 202.53 223.602 197.076 228.42 193.318C233.269 189.53 239.087 187.636 245.875 187.636C252.663 187.636 258.466 189.53 263.284 193.318C268.133 197.076 271.83 202.53 274.375 209.682C276.951 216.803 278.239 225.394 278.239 235.455C278.239 245.576 276.966 254.212 274.42 261.364C271.875 268.485 268.193 273.924 263.375 277.682C258.557 281.409 252.723 283.273 245.875 283.273ZM245.875 273.273C252.663 273.273 257.936 270 261.693 263.455C265.451 256.909 267.33 247.576 267.33 235.455C267.33 227.394 266.466 220.53 264.739 214.864C263.042 209.197 260.587 204.879 257.375 201.909C254.193 198.939 250.36 197.455 245.875 197.455C239.148 197.455 233.89 200.773 230.102 207.409C226.314 214.015 224.42 223.364 224.42 235.455C224.42 243.515 225.269 250.364 226.966 256C228.663 261.636 231.102 265.924 234.284 268.864C237.496 271.803 241.36 273.273 245.875 273.273ZM325.875 283.273C319.027 283.273 313.193 281.409 308.375 277.682C303.557 273.924 299.875 268.485 297.33 261.364C294.784 254.212 293.511 245.576 293.511 235.455C293.511 225.394 294.784 216.803 297.33 209.682C299.905 202.53 303.602 197.076 308.42 193.318C313.269 189.53 319.087 187.636 325.875 187.636C332.663 187.636 338.466 189.53 343.284 193.318C348.133 197.076 351.83 202.53 354.375 209.682C356.951 216.803 358.239 225.394 358.239 235.455C358.239 245.576 356.966 254.212 354.42 261.364C351.875 268.485 348.193 273.924 343.375 277.682C338.557 281.409 332.723 283.273 325.875 283.273ZM325.875 273.273C332.663 273.273 337.936 270 341.693 263.455C345.451 256.909 347.33 247.576 347.33 235.455C347.33 227.394 346.466 220.53 344.739 214.864C343.042 209.197 340.587 204.879 337.375 201.909C334.193 198.939 330.36 197.455 325.875 197.455C319.148 197.455 313.89 200.773 310.102 207.409C306.314 214.015 304.42 223.364 304.42 235.455C304.42 243.515 305.269 250.364 306.966 256C308.663 261.636 311.102 265.924 314.284 268.864C317.496 271.803 321.36 273.273 325.875 273.273Z" fill="#FF8125"/>
<path d="M176.727 283.273C171.394 283.273 166.591 282.212 162.318 280.091C158.045 277.97 154.621 275.061 152.045 271.364C149.47 267.667 148.061 263.455 147.818 258.727H158.727C159.152 262.939 161.061 266.424 164.455 269.182C167.879 271.909 171.97 273.273 176.727 273.273C180.545 273.273 183.939 272.379 186.909 270.591C189.909 268.803 192.258 266.348 193.955 263.227C195.682 260.076 196.545 256.515 196.545 252.545C196.545 248.485 195.652 244.864 193.864 241.682C192.106 238.47 189.682 235.939 186.591 234.091C183.5 232.242 179.97 231.303 176 231.273C173.152 231.242 170.227 231.682 167.227 232.591C164.227 233.47 161.758 234.606 159.818 236L149.273 234.727L154.909 188.909H203.273V198.909H164.364L161.091 226.364H161.636C163.545 224.848 165.939 223.591 168.818 222.591C171.697 221.591 174.697 221.091 177.818 221.091C183.515 221.091 188.591 222.455 193.045 225.182C197.53 227.879 201.045 231.576 203.591 236.273C206.167 240.97 207.455 246.333 207.455 252.364C207.455 258.303 206.121 263.606 203.455 268.273C200.818 272.909 197.182 276.576 192.545 279.273C187.909 281.939 182.636 283.273 176.727 283.273ZM255.875 283.273C249.027 283.273 243.193 281.409 238.375 277.682C233.557 273.924 229.875 268.485 227.33 261.364C224.784 254.212 223.511 245.576 223.511 235.455C223.511 225.394 224.784 216.803 227.33 209.682C229.905 202.53 233.602 197.076 238.42 193.318C243.269 189.53 249.087 187.636 255.875 187.636C262.663 187.636 268.466 189.53 273.284 193.318C278.133 197.076 281.83 202.53 284.375 209.682C286.951 216.803 288.239 225.394 288.239 235.455C288.239 245.576 286.966 254.212 284.42 261.364C281.875 268.485 278.193 273.924 273.375 277.682C268.557 281.409 262.723 283.273 255.875 283.273ZM255.875 273.273C262.663 273.273 267.936 270 271.693 263.455C275.451 256.909 277.33 247.576 277.33 235.455C277.33 227.394 276.466 220.53 274.739 214.864C273.042 209.197 270.587 204.879 267.375 201.909C264.193 198.939 260.36 197.455 255.875 197.455C249.148 197.455 243.89 200.773 240.102 207.409C236.314 214.015 234.42 223.364 234.42 235.455C234.42 243.515 235.269 250.364 236.966 256C238.663 261.636 241.102 265.924 244.284 268.864C247.496 271.803 251.36 273.273 255.875 273.273ZM335.875 283.273C329.027 283.273 323.193 281.409 318.375 277.682C313.557 273.924 309.875 268.485 307.33 261.364C304.784 254.212 303.511 245.576 303.511 235.455C303.511 225.394 304.784 216.803 307.33 209.682C309.905 202.53 313.602 197.076 318.42 193.318C323.269 189.53 329.087 187.636 335.875 187.636C342.663 187.636 348.466 189.53 353.284 193.318C358.133 197.076 361.83 202.53 364.375 209.682C366.951 216.803 368.239 225.394 368.239 235.455C368.239 245.576 366.966 254.212 364.42 261.364C361.875 268.485 358.193 273.924 353.375 277.682C348.557 281.409 342.723 283.273 335.875 283.273ZM335.875 273.273C342.663 273.273 347.936 270 351.693 263.455C355.451 256.909 357.33 247.576 357.33 235.455C357.33 227.394 356.466 220.53 354.739 214.864C353.042 209.197 350.587 204.879 347.375 201.909C344.193 198.939 340.36 197.455 335.875 197.455C329.148 197.455 323.89 200.773 320.102 207.409C316.314 214.015 314.42 223.364 314.42 235.455C314.42 243.515 315.269 250.364 316.966 256C318.663 261.636 321.102 265.924 324.284 268.864C327.496 271.803 331.36 273.273 335.875 273.273Z" fill="#FFB931"/>
<defs>
<filter id="filter0_d_602_17414" x="0.172668" y="31.9275" width="463.192" height="408.08" filterUnits="userSpaceOnUse" color-interpolation-filters="sRGB">
<feFlood flood-opacity="0" result="BackgroundImageFix"/>
<feColorMatrix in="SourceAlpha" type="matrix" values="0 0 0 0 0 0 0 0 0 0 0 0 0 0 0 0 0 0 127 0" result="hardAlpha"/>
<feOffset dy="4"/>
<feGaussianBlur stdDeviation="2"/>
<feComposite in2="hardAlpha" operator="out"/>
<feColorMatrix type="matrix" values="0 0 0 0 0 0 0 0 0 0 0 0 0 0 0 0 0 0 0.25 0"/>
<feBlend mode="normal" in2="BackgroundImageFix" result="effect1_dropShadow_602_17414"/>
<feBlend mode="normal" in="SourceGraphic" in2="effect1_dropShadow_602_17414" result="shape"/>
</filter>
</defs>
</svg>
