<svg width="464" height="463" viewBox="0 0 464 463" fill="none" xmlns="http://www.w3.org/2000/svg">
<g filter="url(#filter0_d_572_17481)">
<path d="M459.365 231.539L345.716 431.579L118.121 431.744L4.17289 231.869L117.821 31.8292L345.417 31.664L459.365 231.539Z" fill="#9CADCE"/>
<path d="M345.127 32.1643L458.789 231.539L345.425 431.079L118.411 431.244L4.74817 231.869L118.112 32.3289L345.127 32.1643Z" stroke="#281F99"/>
</g>
<path d="M201.364 200.509V293.6H190.091V212.327H189.545L166.818 227.418V215.963L190.091 200.509H201.364ZM258.5 294.872C251.652 294.872 245.818 293.009 241 289.281C236.182 285.524 232.5 280.084 229.955 272.963C227.409 265.812 226.136 257.175 226.136 247.054C226.136 236.994 227.409 228.403 229.955 221.281C232.53 214.13 236.227 208.675 241.045 204.918C245.894 201.13 251.712 199.236 258.5 199.236C265.288 199.236 271.091 201.13 275.909 204.918C280.758 208.675 284.455 214.13 287 221.281C289.576 228.403 290.864 236.994 290.864 247.054C290.864 257.175 289.591 265.812 287.045 272.963C284.5 280.084 280.818 285.524 276 289.281C271.182 293.009 265.348 294.872 258.5 294.872ZM258.5 284.872C265.288 284.872 270.561 281.6 274.318 275.054C278.076 268.509 279.955 259.175 279.955 247.054C279.955 238.994 279.091 232.13 277.364 226.463C275.667 220.797 273.212 216.478 270 213.509C266.818 210.539 262.985 209.054 258.5 209.054C251.773 209.054 246.515 212.372 242.727 219.009C238.939 225.615 237.045 234.963 237.045 247.054C237.045 255.115 237.894 261.963 239.591 267.6C241.288 273.236 243.727 277.524 246.909 280.463C250.121 283.403 253.985 284.872 258.5 284.872Z" fill="#F50100"/>
<path d="M212.364 200.509V293.6H201.091V212.327H200.545L177.818 227.418V215.963L201.091 200.509H212.364ZM269.5 294.872C262.652 294.872 256.818 293.009 252 289.281C247.182 285.524 243.5 280.084 240.955 272.963C238.409 265.812 237.136 257.175 237.136 247.054C237.136 236.994 238.409 228.403 240.955 221.281C243.53 214.13 247.227 208.675 252.045 204.918C256.894 201.13 262.712 199.236 269.5 199.236C276.288 199.236 282.091 201.13 286.909 204.918C291.758 208.675 295.455 214.13 298 221.281C300.576 228.403 301.864 236.994 301.864 247.054C301.864 257.175 300.591 265.812 298.045 272.963C295.5 280.084 291.818 285.524 287 289.281C282.182 293.009 276.348 294.872 269.5 294.872ZM269.5 284.872C276.288 284.872 281.561 281.6 285.318 275.054C289.076 268.509 290.955 259.175 290.955 247.054C290.955 238.994 290.091 232.13 288.364 226.463C286.667 220.797 284.212 216.478 281 213.509C277.818 210.539 273.985 209.054 269.5 209.054C262.773 209.054 257.515 212.372 253.727 219.009C249.939 225.615 248.045 234.963 248.045 247.054C248.045 255.115 248.894 261.963 250.591 267.6C252.288 273.236 254.727 277.524 257.909 280.463C261.121 283.403 264.985 284.872 269.5 284.872Z" fill="#FF8125"/>
<path d="M219.364 200.509V293.6H208.091V212.327H207.545L184.818 227.418V215.963L208.091 200.509H219.364ZM276.5 294.872C269.652 294.872 263.818 293.009 259 289.281C254.182 285.524 250.5 280.084 247.955 272.963C245.409 265.812 244.136 257.175 244.136 247.054C244.136 236.994 245.409 228.403 247.955 221.281C250.53 214.13 254.227 208.675 259.045 204.918C263.894 201.13 269.712 199.236 276.5 199.236C283.288 199.236 289.091 201.13 293.909 204.918C298.758 208.675 302.455 214.13 305 221.281C307.576 228.403 308.864 236.994 308.864 247.054C308.864 257.175 307.591 265.812 305.045 272.963C302.5 280.084 298.818 285.524 294 289.281C289.182 293.009 283.348 294.872 276.5 294.872ZM276.5 284.872C283.288 284.872 288.561 281.6 292.318 275.054C296.076 268.509 297.955 259.175 297.955 247.054C297.955 238.994 297.091 232.13 295.364 226.463C293.667 220.797 291.212 216.478 288 213.509C284.818 210.539 280.985 209.054 276.5 209.054C269.773 209.054 264.515 212.372 260.727 219.009C256.939 225.615 255.045 234.963 255.045 247.054C255.045 255.115 255.894 261.963 257.591 267.6C259.288 273.236 261.727 277.524 264.909 280.463C268.121 283.403 271.985 284.872 276.5 284.872Z" fill="#FFB931"/>
<defs>
<filter id="filter0_d_572_17481" x="0.172882" y="31.6641" width="463.192" height="408.08" filterUnits="userSpaceOnUse" color-interpolation-filters="sRGB">
<feFlood flood-opacity="0" result="BackgroundImageFix"/>
<feColorMatrix in="SourceAlpha" type="matrix" values="0 0 0 0 0 0 0 0 0 0 0 0 0 0 0 0 0 0 127 0" result="hardAlpha"/>
<feOffset dy="4"/>
<feGaussianBlur stdDeviation="2"/>
<feComposite in2="hardAlpha" operator="out"/>
<feColorMatrix type="matrix" values="0 0 0 0 0 0 0 0 0 0 0 0 0 0 0 0 0 0 0.25 0"/>
<feBlend mode="normal" in2="BackgroundImageFix" result="effect1_dropShadow_572_17481"/>
<feBlend mode="normal" in="SourceGraphic" in2="effect1_dropShadow_572_17481" result="shape"/>
</filter>
</defs>
</svg>
