<svg width="234" height="190" viewBox="0 0 234 190" fill="none" xmlns="http://www.w3.org/2000/svg">
<path d="M116.586 179.476C177.661 179.476 227.173 150.89 227.173 115.627C227.173 80.3637 177.661 51.7773 116.586 51.7773C55.5112 51.7773 6 80.3637 6 115.627C6 150.89 55.5112 179.476 116.586 179.476Z" fill="#F2F3FE"/>
<path d="M143.984 133.609L108.593 113.169L149.046 89.8145L184.441 110.25L143.984 133.609Z" fill="#DEDFE4"/>
<path d="M47.6152 127.287L93.2616 153.64L131.548 131.541L85.9014 105.188L47.6152 127.287Z" fill="#DEDFE4"/>
<path d="M181.561 27.6057L155.425 12.5234C155.223 12.3783 154.986 12.2893 154.738 12.2653C154.49 12.2414 154.241 12.2834 154.015 12.3871L152.135 13.4728C151.928 13.6167 151.764 13.8134 151.659 14.0423C151.554 14.2713 151.512 14.5242 151.538 14.7747V86.3134C151.576 87.0104 151.778 87.6886 152.128 88.2929C152.477 88.8972 152.964 89.4106 153.549 89.7914L179.681 104.855C179.883 105.001 180.12 105.091 180.367 105.115C180.615 105.14 180.865 105.099 181.091 104.996L182.971 103.906C183.176 103.761 183.338 103.564 183.441 103.337C183.544 103.109 183.585 102.857 183.559 102.608V31.0837C183.522 30.3878 183.323 29.7104 182.975 29.1061C182.628 28.5019 182.144 27.9878 181.561 27.6057Z" fill="#A3A9B6"/>
<path d="M157.17 87.5396L155.29 88.6253V94.5754C155.299 94.7497 155.35 94.9193 155.437 95.0704C155.524 95.2215 155.646 95.3498 155.792 95.445L156.671 95.9526C156.827 96.0314 157 96.0725 157.174 96.0725C157.349 96.0725 157.521 96.0314 157.677 95.9526L158.556 95.445C158.868 95.2432 159.11 94.9492 159.247 94.6037L160.944 89.7157L157.17 87.5396Z" fill="#A3A9B6"/>
<path d="M155.29 94.5757C155.299 94.7499 155.35 94.9195 155.437 95.0706C155.524 95.2217 155.646 95.35 155.792 95.4452L156.671 95.9528C156.732 95.9895 156.8 96.0121 156.871 96.0187C156.942 96.0253 157.013 96.0158 157.079 95.9909C157.146 95.966 157.206 95.9264 157.255 95.875C157.304 95.8237 157.341 95.7619 157.362 95.6943L159.05 90.8016L155.29 88.6255V94.5757Z" fill="#A3A9B6"/>
<path d="M176.025 98.3921L174.145 99.4825V105.428C174.154 105.603 174.203 105.773 174.29 105.925C174.376 106.076 174.497 106.206 174.643 106.302L175.527 106.81C175.682 106.889 175.853 106.93 176.027 106.93C176.201 106.93 176.373 106.889 176.528 106.81L177.412 106.302C177.724 106.1 177.965 105.806 178.102 105.461L179.794 100.568L176.025 98.3921Z" fill="#A3A9B6"/>
<path d="M174.145 105.428C174.154 105.603 174.203 105.773 174.29 105.925C174.376 106.077 174.497 106.206 174.643 106.303L175.527 106.81C175.588 106.847 175.656 106.87 175.726 106.876C175.797 106.883 175.868 106.873 175.935 106.848C176.001 106.823 176.061 106.784 176.11 106.732C176.159 106.681 176.196 106.619 176.218 106.552L177.914 101.659L174.154 99.4829L174.145 105.428Z" fill="#A3A9B6"/>
<path d="M153.672 13.6653L179.804 28.7053C180.389 29.0871 180.876 29.6014 181.226 30.2064C181.575 30.8115 181.777 31.4903 181.816 32.188V103.727C181.866 103.978 181.835 104.238 181.73 104.472C181.624 104.705 181.448 104.899 181.226 105.027C181.004 105.155 180.747 105.211 180.493 105.186C180.238 105.161 179.997 105.056 179.804 104.888L153.672 89.8194C153.088 89.4383 152.602 88.9247 152.253 88.3204C151.904 87.7161 151.703 87.0381 151.665 86.3414V14.8215C151.615 14.5706 151.645 14.3104 151.75 14.0773C151.856 13.8443 152.032 13.6502 152.254 13.5225C152.475 13.3948 152.731 13.3399 152.986 13.3655C153.24 13.3911 153.481 13.496 153.672 13.6653Z" fill="#A3A9B6"/>
<path d="M115.725 111.449L143.99 127.767L183.564 104.921L181.68 103.83L153.414 87.5117L115.725 109.273V111.449Z" fill="#B4B9C4"/>
<path d="M143.99 127.767V125.591L183.564 102.744V104.92L143.99 127.767Z" fill="#A3A9B6"/>
<path d="M144.169 124.6L143.882 124.407C148.897 116.817 148.864 103.704 148.455 100.414C148.423 100.193 148.399 100.056 148.394 100.005L148.737 99.9482C148.737 100.052 148.775 100.174 148.794 100.32C149.16 102.646 151.233 115.284 153.687 119.12L153.395 119.308C151.454 116.295 149.795 108.164 148.963 103.473C149.015 108.798 148.239 118.476 144.169 124.6Z" fill="#F9F9FA"/>
<path d="M160.676 113.009C160.248 112.882 150.256 109.856 149.334 105.447L149.678 105.376C150.552 109.583 160.671 112.647 160.774 112.68L160.676 113.009Z" fill="#F9F9FA"/>
<path d="M150.589 111.224L150.335 110.147C150.301 109.95 150.2 109.77 150.05 109.636C149.899 109.503 149.709 109.425 149.508 109.414C149.343 109.39 149.174 109.417 149.024 109.492C148.874 109.567 148.751 109.686 148.671 109.832L148.347 109.696C148.456 109.481 148.629 109.305 148.842 109.192C149.055 109.08 149.297 109.035 149.536 109.066C149.709 109.077 149.878 109.125 150.031 109.206C150.184 109.287 150.318 109.399 150.425 109.536C150.481 109.091 150.709 108.684 151.059 108.404C151.192 108.334 151.341 108.3 151.49 108.305C151.64 108.31 151.786 108.354 151.914 108.432L151.759 108.742C151.681 108.692 151.591 108.662 151.498 108.656C151.405 108.651 151.312 108.669 151.228 108.709C150.829 108.935 150.674 109.804 150.65 110.119L150.589 111.224Z" fill="#F9F9FA"/>
<path d="M151.572 114.809L151.261 113.832C150.909 112.727 150.321 112.093 149.626 112.05C149.335 112.045 149.049 112.124 148.803 112.279C148.557 112.433 148.361 112.656 148.239 112.92L147.924 112.77C148.073 112.44 148.316 112.161 148.623 111.97C148.93 111.778 149.287 111.682 149.649 111.693C150.068 111.717 150.787 111.942 151.322 113.033C151.44 112.173 151.792 110.791 152.699 110.213C153.025 110.034 153.391 109.943 153.762 109.947C154.134 109.951 154.498 110.051 154.819 110.236L154.674 110.551C154.404 110.392 154.099 110.304 153.786 110.297C153.473 110.29 153.164 110.363 152.888 110.509C151.68 111.261 151.6 113.747 151.6 113.775L151.572 114.809Z" fill="#F9F9FA"/>
<path d="M147.327 117.197L147.017 117.037C147.713 115.697 149.24 114.734 150.566 114.8C150.847 114.803 151.124 114.869 151.376 114.994C151.628 115.118 151.849 115.298 152.023 115.519C152.15 114.843 152.413 114.199 152.796 113.627C153.179 113.055 153.674 112.567 154.25 112.191C154.869 111.78 155.583 111.535 156.324 111.48C157.065 111.425 157.808 111.561 158.48 111.876L158.344 112.191C157.724 111.904 157.042 111.781 156.36 111.832C155.679 111.883 155.023 112.107 154.452 112.483C153.843 112.878 153.334 113.41 152.967 114.037C152.6 114.663 152.384 115.367 152.337 116.092V116.981L152.008 116.153C151.9 115.859 151.703 115.606 151.446 115.426C151.19 115.246 150.884 115.149 150.57 115.148C149.353 115.086 147.966 115.97 147.327 117.197Z" fill="#F9F9FA"/>
<path d="M145.419 122.386L145.113 122.217C145.536 121.446 147.788 117.573 150.452 116.873C150.829 116.765 151.223 116.738 151.611 116.794C151.998 116.85 152.369 116.987 152.699 117.197L152.52 117.493C152.229 117.309 151.903 117.188 151.562 117.139C151.221 117.09 150.873 117.113 150.542 117.206C148.587 117.723 146.566 120.318 145.419 122.386Z" fill="#F9F9FA"/>
<path d="M179.795 80.9834V83.1595L143.99 103.83L115.725 87.5117V85.3356L151.529 64.665L179.795 80.9834Z" fill="#A3A9B6"/>
<path d="M179.795 80.9834L143.99 101.654L115.725 85.3356L151.529 64.665L179.795 80.9834Z" fill="#B4B9C4"/>
<path d="M179.795 57.0511V59.2225L143.99 79.8978L115.725 63.5747V61.4033L151.529 40.728L179.795 57.0511Z" fill="#A3A9B6"/>
<path d="M179.795 57.0511L143.99 77.7217L115.725 61.4033L151.529 40.728L179.795 57.0511Z" fill="#B4B9C4"/>
<path d="M143.868 49.3383L117.736 34.2748C117.534 34.129 117.297 34.0391 117.05 34.0143C116.802 33.9896 116.552 34.0308 116.326 34.1338C115.987 34.3265 114.784 35.0268 114.446 35.2195C114.24 35.364 114.076 35.5609 113.972 35.7898C113.868 36.0187 113.827 36.2713 113.853 36.5214V108.041C113.892 108.738 114.094 109.417 114.444 110.021C114.793 110.625 115.28 111.138 115.865 111.519L141.997 126.588C142.199 126.733 142.435 126.823 142.683 126.848C142.931 126.873 143.181 126.832 143.407 126.729C143.746 126.531 144.958 125.836 145.287 125.633C145.494 125.49 145.659 125.295 145.765 125.067C145.87 124.839 145.913 124.586 145.889 124.336V52.821C145.85 52.1224 145.647 51.4427 145.296 50.8375C144.944 50.2323 144.455 49.7186 143.868 49.3383Z" fill="#A3A9B6"/>
<path opacity="0.2" d="M143.99 60.3177L145.879 59.2273V52.6943L143.985 53.7847L143.99 60.3177Z" fill="#141619"/>
<path opacity="0.2" d="M181.684 38.5567L183.574 37.471V30.938L181.68 32.0284L181.684 38.5567Z" fill="#141619"/>
<path d="M119.494 109.273L117.614 110.359V116.309C117.624 116.483 117.674 116.653 117.762 116.804C117.849 116.955 117.971 117.083 118.117 117.178L118.996 117.686C119.152 117.765 119.324 117.806 119.499 117.806C119.674 117.806 119.846 117.765 120.002 117.686L120.881 117.178C121.192 116.977 121.433 116.685 121.572 116.342L123.268 111.449L119.494 109.273Z" fill="#A3A9B6"/>
<path d="M117.609 116.309C117.619 116.483 117.669 116.652 117.757 116.804C117.844 116.955 117.966 117.083 118.112 117.178L118.991 117.686C119.052 117.722 119.12 117.745 119.191 117.752C119.262 117.758 119.333 117.749 119.399 117.724C119.466 117.699 119.526 117.659 119.575 117.608C119.624 117.557 119.66 117.495 119.682 117.427L121.379 112.534L117.619 110.358L117.609 116.309Z" fill="#A3A9B6"/>
<path d="M138.337 120.153L136.457 121.239V127.189C136.465 127.363 136.515 127.533 136.601 127.684C136.688 127.835 136.809 127.963 136.955 128.059L137.838 128.566C137.993 128.645 138.165 128.686 138.339 128.686C138.513 128.686 138.684 128.645 138.839 128.566L139.723 128.059C140.033 127.856 140.274 127.565 140.414 127.222L142.106 122.329L138.337 120.153Z" fill="#A3A9B6"/>
<path d="M136.457 127.166C136.465 127.339 136.515 127.509 136.601 127.66C136.688 127.811 136.809 127.94 136.955 128.035L137.838 128.543C137.899 128.579 137.967 128.602 138.038 128.608C138.109 128.615 138.18 128.606 138.246 128.581C138.313 128.556 138.373 128.516 138.422 128.465C138.471 128.413 138.508 128.352 138.529 128.284L140.221 123.391L136.461 121.215L136.457 127.166Z" fill="#A3A9B6"/>
<path d="M115.847 35.365L141.983 50.4285C142.568 50.8106 143.054 51.325 143.403 51.9301C143.751 52.5352 143.953 53.2138 143.99 53.9112V127.767C143.99 127.767 142.538 126.907 141.983 126.587L115.851 111.519C115.266 111.138 114.779 110.625 114.43 110.021C114.08 109.416 113.878 108.738 113.84 108.041V36.5212C113.789 36.2703 113.819 36.0101 113.925 35.777C114.03 35.544 114.206 35.3499 114.428 35.2222C114.65 35.0945 114.906 35.0396 115.16 35.0652C115.415 35.0908 115.655 35.1957 115.847 35.365Z" fill="#A3A9B6"/>
<path opacity="0.2" d="M141.983 50.4285L115.847 35.365C115.655 35.1957 115.415 35.0908 115.16 35.0652C114.906 35.0396 114.65 35.0945 114.428 35.2222C114.206 35.3499 114.03 35.544 113.925 35.777C113.819 36.0101 113.789 36.2703 113.84 36.5212V42.9085L143.99 60.2985V53.9112C143.953 53.2138 143.751 52.5352 143.403 51.9301C143.054 51.325 142.568 50.8106 141.983 50.4285Z" fill="#141619"/>
<path d="M177.91 57.2249C177.864 57.2237 177.821 57.205 177.788 57.1726C177.756 57.1403 177.737 57.0967 177.736 57.051V35.5908L157.268 47.4066C157.249 47.419 157.227 47.4274 157.204 47.431C157.182 47.4347 157.159 47.4336 157.137 47.4278C157.115 47.4221 157.094 47.4118 157.076 47.3976C157.058 47.3834 157.043 47.3657 157.033 47.3455C157.021 47.3258 157.013 47.3039 157.01 47.2811C157.006 47.2584 157.008 47.2352 157.013 47.2129C157.019 47.1906 157.029 47.1697 157.043 47.1513C157.057 47.1329 157.074 47.1174 157.094 47.1058L177.849 35.1396C177.875 35.1234 177.905 35.1147 177.936 35.1147C177.967 35.1147 177.997 35.1234 178.023 35.1396C178.049 35.1551 178.07 35.1772 178.085 35.2036C178.1 35.23 178.108 35.2597 178.108 35.29V57.051C178.108 57.076 178.103 57.1007 178.092 57.1235C178.082 57.1462 178.067 57.1666 178.049 57.1831C178.03 57.1996 178.008 57.2119 177.984 57.2191C177.96 57.2263 177.935 57.2283 177.91 57.2249Z" fill="#F9F9FA"/>
<path d="M174.141 51.7822H174.09C174.045 51.7721 174.006 51.7447 173.981 51.706C173.956 51.6672 173.948 51.6203 173.958 51.5754L177.464 36.3898L170.508 48.4359C170.497 48.4559 170.483 48.4736 170.465 48.4879C170.447 48.5021 170.427 48.5127 170.405 48.5188C170.383 48.525 170.36 48.5266 170.337 48.5237C170.315 48.5207 170.293 48.5132 170.273 48.5017C170.253 48.4904 170.235 48.4752 170.221 48.457C170.206 48.4388 170.196 48.418 170.19 48.3956C170.184 48.3733 170.182 48.35 170.185 48.327C170.188 48.3041 170.196 48.2819 170.207 48.2619L177.727 35.2054C177.749 35.1695 177.782 35.1423 177.822 35.1286C177.861 35.1148 177.904 35.1154 177.944 35.1302C177.982 35.1459 178.014 35.1749 178.033 35.212C178.052 35.2491 178.057 35.2918 178.047 35.3323L174.287 51.6553C174.278 51.6888 174.26 51.719 174.234 51.7416C174.208 51.7643 174.176 51.7785 174.141 51.7822Z" fill="#F9F9FA"/>
<path d="M166.607 46.3628C166.583 46.3629 166.56 46.358 166.538 46.3482C166.516 46.3385 166.496 46.3243 166.48 46.3064C166.448 46.2739 166.43 46.23 166.43 46.1842C166.43 46.1385 166.448 46.0946 166.48 46.062L177.789 35.1815C177.821 35.1494 177.865 35.1313 177.911 35.1313C177.956 35.1313 178 35.1494 178.033 35.1815C178.065 35.2149 178.084 35.2595 178.084 35.3061C178.084 35.3526 178.065 35.3973 178.033 35.4306L166.725 46.3064C166.71 46.3231 166.692 46.3367 166.672 46.3464C166.651 46.3561 166.63 46.3616 166.607 46.3628Z" fill="#F9F9FA"/>
<path d="M177.91 53.7516C177.864 53.7504 177.82 53.7317 177.788 53.6993C177.756 53.6669 177.737 53.6234 177.736 53.5777C177.736 50.7295 174.559 50.5368 174.422 50.5321C174.397 50.5302 174.372 50.523 174.349 50.5108C174.326 50.4987 174.306 50.4819 174.291 50.4616C174.276 50.4416 174.266 50.4186 174.261 50.3942C174.256 50.3698 174.257 50.3447 174.263 50.3206C174.378 49.7387 174.339 49.1366 174.149 48.5747C173.958 48.0129 173.623 47.5111 173.177 47.1199C173.014 46.9572 172.818 46.8312 172.602 46.7502C172.387 46.6691 172.156 46.6349 171.927 46.6499C171.804 46.6706 171.687 46.7175 171.584 46.7872C171.481 46.8569 171.395 46.9479 171.33 47.0541C171.31 47.0884 171.279 47.1149 171.243 47.1295C171.206 47.144 171.165 47.1456 171.128 47.134C171.09 47.1224 171.058 47.0984 171.035 47.066C171.013 47.0336 171.003 46.9946 171.005 46.9554C171.005 46.8473 171.198 44.314 168.97 44.0649C168.942 44.0614 168.914 44.051 168.891 44.0346C168.867 44.0182 168.847 43.9964 168.834 43.9709C168.821 43.9462 168.815 43.9188 168.815 43.891C168.815 43.8632 168.821 43.8358 168.834 43.8111C168.834 43.8111 169.821 41.964 169.44 41.0569C169.396 40.9503 169.328 40.8557 169.241 40.7806C169.153 40.7054 169.049 40.6519 168.937 40.6245C168.915 40.6186 168.894 40.6082 168.876 40.594C168.858 40.5797 168.843 40.5619 168.832 40.5417C168.821 40.5215 168.814 40.4992 168.812 40.4762C168.81 40.4533 168.813 40.4302 168.82 40.4083C168.834 40.3647 168.864 40.3282 168.905 40.3063C168.945 40.2845 168.992 40.2789 169.036 40.2908C169.198 40.3324 169.348 40.4115 169.474 40.5218C169.599 40.632 169.697 40.7702 169.76 40.9253C170.122 41.7854 169.511 43.2095 169.248 43.7453C170.977 44.079 171.297 45.7099 171.344 46.5183C171.498 46.4085 171.675 46.3332 171.861 46.2974C172.143 46.27 172.428 46.3069 172.695 46.4054C172.961 46.5039 173.201 46.6614 173.398 46.8661C173.865 47.2779 174.222 47.7992 174.438 48.3833C174.654 48.9674 174.721 49.5959 174.634 50.2125C175.395 50.3112 178.084 50.8423 178.079 53.5871C178.077 53.6307 178.058 53.6719 178.027 53.7024C177.995 53.7329 177.953 53.7504 177.91 53.7516Z" fill="#F9F9FA"/>
<path d="M177.91 49.061C177.866 49.0611 177.824 49.0448 177.792 49.0151C177.759 48.9855 177.74 48.9448 177.736 48.9012C177.661 47.9048 177.083 46.617 176.354 46.2974C176.21 46.2329 176.05 46.2119 175.894 46.2369C175.738 46.262 175.592 46.332 175.475 46.4384C175.447 46.4568 175.413 46.4666 175.379 46.4666C175.345 46.4666 175.311 46.4568 175.283 46.4384C175.253 46.422 175.228 46.3972 175.213 46.3672C175.197 46.3371 175.19 46.303 175.193 46.2692C175.193 46.2692 175.348 44.5067 174.554 43.7782C174.382 43.6343 174.178 43.5336 173.958 43.4846C173.739 43.4355 173.512 43.4395 173.294 43.4962C173.265 43.5025 173.233 43.5007 173.204 43.4907C173.175 43.4808 173.15 43.4632 173.13 43.4398C173.11 43.4162 173.096 43.3877 173.09 43.3572C173.085 43.3267 173.087 43.2952 173.097 43.2659C173.257 42.8288 173.567 41.6021 173.149 41.165C172.951 40.9629 172.589 40.9441 172.068 41.1133C172.032 41.1251 171.994 41.125 171.958 41.1132C171.923 41.1013 171.892 41.0783 171.87 41.0475C171.849 41.0173 171.837 40.9811 171.837 40.9441C171.837 40.907 171.849 40.8709 171.87 40.8407C172.162 40.4741 172.881 39.4025 172.702 38.8902C172.673 38.8194 172.625 38.7578 172.564 38.7115C172.503 38.6653 172.431 38.6361 172.354 38.627C172.332 38.6215 172.311 38.6116 172.293 38.598C172.274 38.5844 172.259 38.5673 172.247 38.5476C172.235 38.528 172.227 38.5062 172.224 38.4835C172.221 38.4608 172.222 38.4377 172.228 38.4155C172.232 38.3931 172.241 38.3718 172.254 38.3531C172.267 38.3343 172.284 38.3185 172.303 38.3065C172.322 38.2946 172.344 38.2868 172.367 38.2837C172.389 38.2807 172.412 38.2823 172.434 38.2886C172.566 38.3078 172.691 38.3613 172.796 38.4438C172.9 38.5263 172.982 38.6348 173.031 38.7586C173.224 39.3179 172.754 40.1686 172.425 40.6386C172.594 40.5983 172.771 40.5999 172.94 40.6433C173.109 40.6867 173.264 40.7706 173.393 40.8877C173.91 41.4235 173.661 42.5562 173.506 43.0873C173.735 43.0599 173.968 43.0813 174.188 43.1502C174.408 43.219 174.612 43.3338 174.784 43.4868C175.485 44.126 175.56 45.3668 175.55 45.9355C175.698 45.8663 175.858 45.8305 176.02 45.8305C176.183 45.8305 176.343 45.8663 176.49 45.9355C177.379 46.3256 177.994 47.7121 178.084 48.8354C178.086 48.858 178.083 48.8808 178.076 48.9023C178.069 48.9239 178.058 48.9438 178.043 48.9609C178.028 48.978 178.01 48.9919 177.989 49.0019C177.969 49.0118 177.947 49.0175 177.924 49.0187L177.91 49.061Z" fill="#F9F9FA"/>
<path d="M188.035 27.676C188.012 27.4265 187.924 27.1874 187.778 26.9833C187.633 26.7793 187.436 26.6177 187.207 26.5151L159.191 10.3377C158.568 10.0226 157.879 9.8584 157.181 9.8584C156.483 9.8584 155.795 10.0226 155.172 10.3377L112.083 35.2195C111.854 35.3221 111.657 35.4837 111.511 35.6877C111.366 35.8918 111.278 36.1309 111.255 36.3804V38.5565C111.278 38.8061 111.366 39.0452 111.511 39.2492C111.657 39.4532 111.854 39.6149 112.083 39.7174L140.099 55.8901C140.722 56.2075 141.41 56.3729 142.109 56.3729C142.807 56.3729 143.496 56.2075 144.118 55.8901L187.207 31.013C187.436 30.9105 187.633 30.7488 187.778 30.5448C187.924 30.3408 188.012 30.1017 188.035 29.8521V27.676Z" fill="#A3A9B6"/>
<path d="M140.099 53.714L112.082 37.5413C110.973 36.8974 110.973 35.8587 112.082 35.2195L155.172 10.3377C155.794 10.0226 156.483 9.8584 157.181 9.8584C157.879 9.8584 158.567 10.0226 159.19 10.3377L187.207 26.5151C188.321 27.159 188.321 28.193 187.207 28.8369L144.117 53.714C143.495 54.0313 142.806 54.1968 142.108 54.1968C141.409 54.1968 140.721 54.0313 140.099 53.714Z" fill="#B4B9C4"/>
<path opacity="0.1" d="M181.68 34.1997L168.491 50.5228L145.88 63.5794L145.875 54.875L181.68 34.1997Z" fill="#141619"/>
<path opacity="0.1" d="M179.795 59.2222L168.492 74.4549L145.88 87.5162V78.8071L179.795 59.2222Z" fill="#141619"/>
<path opacity="0.1" d="M179.795 83.1597L168.492 98.3924L145.88 111.454V102.745L179.795 83.1597Z" fill="#141619"/>
<path d="M127.926 130.701L93.2584 150.718L54.2202 128.125L88.8874 108.112L127.926 130.701Z" fill="#868EA0"/>
<path opacity="0.5" d="M127.926 130.701L93.2584 150.718L54.2202 128.125L88.8874 108.112L127.926 130.701Z" fill="#141619"/>
<path d="M88.8874 80.979V108.112L54.2202 128.125V100.996L88.8874 80.979Z" fill="#868EA0"/>
<path opacity="0.23" d="M88.8874 80.979V108.112L54.2202 128.125V100.996L88.8874 80.979Z" fill="#141619"/>
<path d="M93.2584 123.585V150.718L54.2202 128.125V100.997L93.2584 123.585Z" fill="#868EA0"/>
<path opacity="0.38" d="M93.2584 123.585V150.718L54.2202 128.125V100.997L93.2584 123.585Z" fill="#141619"/>
<path d="M127.925 103.567V130.7L88.8872 108.112V80.979L127.925 103.567Z" fill="#868EA0"/>
<path opacity="0.4" d="M127.925 103.567V130.7L88.8872 108.112V80.979L127.925 103.567Z" fill="#141619"/>
<path d="M127.925 130.701V103.568L93.2578 123.585V150.718L127.925 130.701Z" fill="#868EA0"/>
<path opacity="0.23" d="M127.925 130.701V103.568L93.2578 123.585V150.718L127.925 130.701Z" fill="#141619"/>
<path d="M88.8872 80.9792L88.9342 65.958L127.878 88.5744L127.925 103.567L88.8872 80.9792Z" fill="#868EA0"/>
<path opacity="0.2" d="M88.8872 80.9792L88.9342 65.958L127.878 88.5744L127.925 103.567L88.8872 80.9792Z" fill="#141619"/>
<path d="M93.2578 123.585L96.5102 110.443L130.862 90.6094L127.925 103.567L93.2578 123.585Z" fill="#868EA0"/>
<path opacity="0.3" d="M93.2578 123.585L96.5102 110.443L130.862 90.6094L127.925 103.567L93.2578 123.585Z" fill="#141619"/>
<path d="M54.2195 100.997L50.0835 87.3666L84.7507 67.354L88.8867 80.9793L54.2195 100.997Z" fill="#868EA0"/>
<path opacity="0.1" d="M54.2195 100.997L50.0835 87.3666L84.7507 67.354L88.8867 80.9793L54.2195 100.997Z" fill="#141619"/>
<path d="M54.2197 100.996L46.0605 89.7305L85.1035 112.319L93.258 123.585L54.2197 100.996Z" fill="#868EA0"/>
<path opacity="0.45" d="M54.2197 100.996L46.0605 89.7305L85.1035 112.319L93.258 123.585L54.2197 100.996Z" fill="#141619"/>
<g opacity="0.7">
<path d="M103.466 142.648C103.41 142.648 103.355 142.626 103.315 142.587C103.275 142.547 103.251 142.493 103.25 142.437V137.662C103.251 137.605 103.274 137.55 103.315 137.51C103.355 137.47 103.409 137.447 103.466 137.445C103.523 137.447 103.577 137.47 103.616 137.51C103.656 137.551 103.678 137.605 103.678 137.662V142.437C103.678 142.493 103.655 142.547 103.616 142.586C103.576 142.626 103.522 142.648 103.466 142.648Z" fill="white"/>
<path d="M102.841 139.315C102.813 139.32 102.784 139.32 102.756 139.315C102.705 139.292 102.665 139.249 102.644 139.197C102.623 139.144 102.623 139.086 102.643 139.033L103.405 137.28L104.251 138.258C104.281 138.302 104.294 138.355 104.288 138.408C104.281 138.461 104.255 138.509 104.215 138.544C104.175 138.579 104.123 138.598 104.07 138.597C104.017 138.596 103.966 138.576 103.927 138.54L103.527 138.07L103.057 139.198C103.037 139.237 103.005 139.269 102.967 139.29C102.928 139.31 102.885 139.319 102.841 139.315Z" fill="white"/>
<path d="M105.435 141.524C105.379 141.523 105.325 141.5 105.285 141.459C105.246 141.419 105.224 141.365 105.224 141.308V136.538C105.224 136.482 105.246 136.428 105.286 136.388C105.325 136.348 105.379 136.326 105.435 136.326C105.491 136.326 105.545 136.348 105.585 136.388C105.624 136.428 105.647 136.482 105.647 136.538V141.303C105.647 141.332 105.642 141.36 105.632 141.387C105.622 141.413 105.606 141.437 105.587 141.458C105.567 141.478 105.544 141.495 105.518 141.506C105.492 141.518 105.464 141.524 105.435 141.524Z" fill="white"/>
<path d="M104.811 138.192C104.782 138.197 104.754 138.197 104.726 138.192C104.7 138.181 104.677 138.165 104.657 138.145C104.638 138.124 104.623 138.1 104.613 138.074C104.603 138.048 104.598 138.02 104.599 137.992C104.6 137.964 104.606 137.936 104.618 137.91L105.375 136.134L106.221 137.107C106.26 137.147 106.281 137.201 106.281 137.257C106.281 137.313 106.26 137.367 106.221 137.407C106.201 137.427 106.177 137.443 106.152 137.454C106.126 137.465 106.098 137.47 106.07 137.47C106.042 137.47 106.014 137.465 105.989 137.454C105.963 137.443 105.939 137.427 105.92 137.407L105.52 136.937L105.05 138.065C105.031 138.111 104.996 138.148 104.953 138.171C104.909 138.194 104.859 138.202 104.811 138.192Z" fill="white"/>
</g>
<g opacity="0.7">
<path d="M97.785 145.886C97.7046 145.887 97.6253 145.868 97.5547 145.83C97.4697 145.775 97.4009 145.699 97.3554 145.609C97.3099 145.519 97.2895 145.418 97.2962 145.317V144.73C97.2974 144.673 97.3207 144.62 97.3611 144.58C97.4015 144.54 97.4558 144.518 97.5124 144.518C97.5685 144.518 97.6223 144.541 97.6619 144.58C97.7016 144.62 97.7239 144.674 97.7239 144.73V145.317C97.7239 145.402 97.7239 145.449 97.7662 145.458C97.8085 145.468 97.832 145.458 97.9025 145.421C98.0347 145.299 98.139 145.149 98.2079 144.983C98.2769 144.817 98.309 144.637 98.302 144.457V142.013C98.302 141.957 98.3242 141.903 98.3639 141.864C98.4036 141.824 98.4574 141.802 98.5135 141.802C98.5695 141.802 98.6233 141.824 98.663 141.864C98.7027 141.903 98.7249 141.957 98.7249 142.013V144.457C98.7355 144.711 98.686 144.964 98.5807 145.195C98.4754 145.426 98.3171 145.629 98.1187 145.787C98.0182 145.849 97.903 145.883 97.785 145.886Z" fill="white"/>
<path d="M95.5425 143.917V143.55C95.5983 142.609 95.8735 141.694 96.346 140.878C96.8185 140.062 97.4752 139.368 98.2638 138.85C99.0346 138.409 99.7678 138.343 100.332 138.672C100.633 138.878 100.872 139.161 101.026 139.492C101.18 139.823 101.242 140.189 101.206 140.552V140.674L95.5425 143.917ZM99.5422 138.869C99.1658 138.887 98.8002 139 98.48 139.198C97.8043 139.643 97.2321 140.228 96.8023 140.913C96.3725 141.598 96.0951 142.368 95.989 143.17L100.769 140.406C100.789 140.134 100.739 139.861 100.623 139.614C100.507 139.367 100.329 139.154 100.106 138.996C99.9325 138.905 99.738 138.861 99.5422 138.869Z" fill="white"/>
</g>
<path opacity="0.7" d="M46.0605 89.7305L85.1035 112.319L93.258 123.585L84.6711 112.718L46.0605 89.7305Z" fill="white"/>
<path opacity="0.7" d="M127.925 103.568L93.2578 123.585V150.718L93.9064 124.13L127.925 103.568Z" fill="white"/>
<path d="M77.0517 92.7144C80.6284 92.1974 83.8949 89.8944 85.9817 86.9992C86.9548 85.6464 87.6717 84.1267 88.0967 82.5154C88.548 81.0086 88.6222 79.414 88.3129 77.8718C87.669 75.2915 85.2814 73.764 82.7575 73.4444C81.4768 73.2759 80.1745 73.4029 78.9505 73.8157C77.6813 74.2512 76.5802 75.0729 75.8015 76.1657C75.3132 76.7478 75.006 77.4602 74.9179 78.2148C74.9104 78.5104 75.0146 78.798 75.2097 79.0201C75.4049 79.2423 75.6766 79.3827 75.9707 79.4134C76.7275 79.4771 77.4838 79.2851 78.1186 78.8682C78.8926 78.4341 79.5744 77.8529 80.1255 77.1573C81.3076 75.6984 82.1923 74.0217 82.7293 72.2223C83.1061 70.6783 83.1061 69.0664 82.7293 67.5224C82.443 65.9072 81.7048 64.4063 80.6002 63.1936C79.3338 62.042 77.7268 61.3342 76.0224 61.1774C74.326 60.9443 72.5987 61.1051 70.9746 61.6474C70.2612 61.8636 69.6002 62.2253 69.0335 62.7095C68.6293 63.0856 68.1687 63.7059 68.3332 64.3169C68.4977 64.9279 69.3907 65.2006 69.997 65.1207C70.8943 64.9525 71.7162 64.507 72.347 63.8469C73.0499 63.155 73.6469 62.3631 74.1189 61.4969C74.4695 60.8745 74.6525 60.1716 74.65 59.4572C74.5889 56.4773 71.2942 54.5503 68.7139 54.0051C68.0173 53.8596 67.3038 53.8122 66.5942 53.8642C66.3545 53.8642 66.5002 54.259 66.6929 54.2449C68.0814 54.1818 69.4613 54.4934 70.6879 55.1473C71.898 55.7035 72.9144 56.6085 73.6066 57.7464C73.915 58.3073 74.0673 58.9408 74.0475 59.5807C74.0276 60.2205 73.8364 60.8434 73.4938 61.3842C73.0336 62.1857 72.4606 62.917 71.7924 63.5556C71.2331 64.0632 70.3824 64.6506 69.5975 64.5942C69.4679 64.594 69.341 64.5572 69.2313 64.4882C69.1216 64.4193 69.0335 64.3208 68.9771 64.2042C68.9534 64.0498 68.9661 63.8921 69.0143 63.7436C69.0624 63.595 69.1446 63.4598 69.2544 63.3488C69.6694 62.9018 70.1827 62.5575 70.7537 62.343C72.1637 61.7568 73.6905 61.5058 75.214 61.6098C76.784 61.6382 78.3108 62.1286 79.6038 63.0198C80.7301 63.9549 81.53 65.2239 81.888 66.6434C82.3414 68.0855 82.4824 69.6076 82.3016 71.1084C82.0224 72.6186 81.4422 74.0572 80.5955 75.3385C79.726 76.7767 78.6356 78.1585 77 78.7225C76.5958 78.8682 75.7498 79.0796 75.59 78.4921C75.4302 77.9046 75.8908 77.1809 76.1869 76.725C76.8416 75.6945 77.7962 74.8891 78.9223 74.4173C80.0089 73.9817 81.1818 73.8047 82.3486 73.9003C84.5623 74.0648 86.8089 75.2209 87.5797 77.4205C87.9663 78.7351 88.0084 80.127 87.7019 81.4626C87.4254 82.9264 86.8991 84.3319 86.1462 85.6174C84.5265 88.3487 82.0737 90.4886 79.1479 91.7227C78.4523 92.0235 77.7379 92.2773 77.0094 92.5123C76.9342 92.5405 76.9671 92.7285 77.0517 92.7144Z" fill="#DEDFE4"/>
<path d="M62.1098 51.9092C60.2298 51.7729 57.6401 53.2534 58.5613 54.3344C59.4825 55.4154 61.9265 53.6669 61.9265 53.6669C61.9265 53.6669 61.6962 55.8525 62.4952 56.1016C63.2942 56.3507 64.3752 54.2639 63.5762 52.9291C63.9615 53.081 64.379 53.133 64.7898 53.0805C65.2007 53.0279 65.5916 52.8723 65.9262 52.6283C67.0636 51.7917 65.8604 51.002 64.2577 51.143C64.2577 51.143 65.4045 47.383 63.0874 48.1021C61.9265 48.4546 61.5176 49.813 62.1098 51.9092Z" fill="#A3A9B6"/>
<path opacity="0.65" d="M62.1098 51.9092C60.2298 51.7729 57.6401 53.2534 58.5613 54.3344C59.4825 55.4154 61.9265 53.6669 61.9265 53.6669C61.9265 53.6669 61.6962 55.8525 62.4952 56.1016C63.2942 56.3507 64.3752 54.2639 63.5762 52.9291C63.9615 53.081 64.379 53.133 64.7898 53.0805C65.2007 53.0279 65.5916 52.8723 65.9262 52.6283C67.0636 51.7917 65.8604 51.002 64.2577 51.143C64.2577 51.143 65.4045 47.383 63.0874 48.1021C61.9265 48.4546 61.5176 49.813 62.1098 51.9092Z" fill="white"/>
<path d="M63.858 52.7083C63.754 52.6064 63.6441 52.5107 63.529 52.4216C63.3645 52.2947 63.1906 52.1725 63.0261 52.0503C62.866 51.9338 62.6979 51.8286 62.5232 51.7354C62.4227 51.6796 62.3191 51.6294 62.213 51.585C62.0665 51.5162 61.9036 51.4901 61.743 51.5098C61.7009 51.511 61.6599 51.5234 61.6243 51.5459C61.5887 51.5684 61.5598 51.6 61.5405 51.6375C61.5213 51.6749 61.5125 51.7169 61.5151 51.7589C61.5176 51.8009 61.5314 51.8415 61.555 51.8764C61.6842 52.0163 61.8455 52.1228 62.025 52.1866L62.2788 52.3229C62.4527 52.4263 62.6078 52.5438 62.7488 52.6613C62.8898 52.7788 63.0778 52.8916 63.2188 53.0091C63.4613 53.2057 63.7323 53.3642 64.0225 53.4791C64.0355 53.4861 64.0501 53.4897 64.0648 53.4897C64.0796 53.4897 64.0941 53.4861 64.1071 53.4791C64.3468 53.2911 63.9943 52.8446 63.858 52.7083Z" fill="#B4B9C4"/>
</svg>
