<svg width="357" height="630" viewBox="0 0 357 630" fill="none" xmlns="http://www.w3.org/2000/svg">
<path d="M161 1L141 50H215L194.5 1H161Z" stroke="url(#paint0_linear_5_3494)" stroke-width="1.5" stroke-linejoin="round"/>
<path d="M141 50H215L197 63H159L141 50Z" stroke="url(#paint1_linear_5_3494)" stroke-width="1.5" stroke-linejoin="round"/>
<circle cx="178" cy="23" r="10" stroke="url(#paint2_linear_5_3494)" stroke-width="1.5"/>
<path d="M141 200L159 63H197L217 200H141Z" stroke="url(#paint3_linear_5_3494)" stroke-width="1.5"/>
<path fill-rule="evenodd" clip-rule="evenodd" d="M90.397 200L61.397 171L2 230.397L61.397 289.794L89.1909 262H268.603L296.397 289.794L355.794 230.397L296.397 171L267.397 200H90.397ZM61.397 212.397L79.397 230.397L61.397 248.397L43.397 230.397L61.397 212.397ZM314.397 230.397L296.397 212.397L278.397 230.397L296.397 248.397L314.397 230.397Z" stroke="url(#paint4_linear_5_3494)" stroke-width="1.5"/>
<path d="M156.5 83L204.5 116" stroke="url(#paint5_linear_5_3494)" stroke-width="1.5"/>
<path d="M150 131L213 173" stroke="url(#paint6_linear_5_3494)" stroke-width="1.5"/>
<path d="M137 262.75V710.25" stroke="#515B7B" stroke-width="1.5"/>
<path d="M222 262.75V710.25" stroke="#515B7B" stroke-width="1.5"/>
<path d="M178 262.75V710.25" stroke="#515B7B" stroke-width="1.5"/>
<rect opacity="0.8" x="125" y="262.75" width="112" height="100" fill="url(#paint7_linear_5_3494)"/>
<rect opacity="0.8" x="125" y="63.75" width="112" height="52" fill="url(#paint8_linear_5_3494)"/>
<path d="M132.104 234.18C131.464 234.18 130.884 234.068 130.364 233.844C129.852 233.612 129.432 233.284 129.104 232.86C128.776 232.436 128.568 231.936 128.48 231.36L130.184 231.108C130.304 231.596 130.548 231.976 130.916 232.248C131.284 232.52 131.716 232.656 132.212 232.656C132.644 232.656 133.024 232.56 133.352 232.368C133.688 232.168 133.856 231.896 133.856 231.552C133.856 231.36 133.792 231.192 133.664 231.048C133.544 230.904 133.328 230.784 133.016 230.688L130.772 230.028C130.236 229.876 129.776 229.64 129.392 229.32C129.008 229 128.816 228.484 128.816 227.772C128.816 227.212 128.956 226.74 129.236 226.356C129.524 225.964 129.912 225.672 130.4 225.48C130.888 225.28 131.436 225.184 132.044 225.192C132.94 225.208 133.688 225.432 134.288 225.864C134.888 226.296 135.292 226.916 135.5 227.724L133.736 228.024C133.64 227.608 133.424 227.288 133.088 227.064C132.76 226.832 132.38 226.716 131.948 226.716C131.564 226.716 131.232 226.808 130.952 226.992C130.672 227.168 130.532 227.4 130.532 227.688C130.532 227.944 130.636 228.14 130.844 228.276C131.052 228.412 131.332 228.524 131.684 228.612L133.184 229.02C133.616 229.14 133.996 229.276 134.324 229.428C134.652 229.58 134.94 229.82 135.188 230.148C135.444 230.468 135.572 230.896 135.572 231.432C135.572 232.024 135.408 232.528 135.08 232.944C134.76 233.36 134.336 233.672 133.808 233.88C133.28 234.08 132.712 234.18 132.104 234.18ZM150.336 225.36H152.052L153.672 231.3L155.28 225.372L156.996 225.36L158.616 231.3L160.248 225.36H161.964L159.432 234H157.824L156.144 228.168L154.476 234H152.868L150.336 225.36ZM180.801 234.18C179.953 234.18 179.213 233.992 178.581 233.616C177.949 233.24 177.461 232.716 177.117 232.044C176.781 231.364 176.613 230.576 176.613 229.68C176.613 228.784 176.781 228 177.117 227.328C177.461 226.648 177.949 226.12 178.581 225.744C179.213 225.368 179.953 225.18 180.801 225.18C181.649 225.18 182.389 225.368 183.021 225.744C183.653 226.12 184.137 226.648 184.473 227.328C184.817 228 184.989 228.784 184.989 229.68C184.989 230.576 184.817 231.364 184.473 232.044C184.137 232.716 183.653 233.24 183.021 233.616C182.389 233.992 181.649 234.18 180.801 234.18ZM180.801 232.644C181.601 232.652 182.209 232.392 182.625 231.864C183.049 231.336 183.261 230.608 183.261 229.68C183.261 228.76 183.053 228.04 182.637 227.52C182.221 226.992 181.609 226.724 180.801 226.716C180.001 226.708 179.389 226.968 178.965 227.496C178.549 228.024 178.341 228.752 178.341 229.68C178.341 230.6 178.549 231.324 178.965 231.852C179.381 232.372 179.993 232.636 180.801 232.644ZM205.459 234L204.043 231.072H202.219V234H200.587V225.36H204.235C204.515 225.36 204.755 225.376 204.955 225.408C205.699 225.52 206.255 225.828 206.623 226.332C206.999 226.828 207.187 227.456 207.187 228.216C207.187 228.824 207.067 229.352 206.827 229.8C206.587 230.24 206.227 230.572 205.747 230.796L207.307 234H205.459ZM202.219 229.548H204.163C204.395 229.548 204.579 229.528 204.715 229.488C205.011 229.408 205.223 229.248 205.351 229.008C205.479 228.768 205.543 228.504 205.543 228.216C205.543 227.928 205.479 227.664 205.351 227.424C205.223 227.184 205.011 227.024 204.715 226.944C204.571 226.904 204.387 226.884 204.163 226.884H202.219V229.548ZM225.822 225.36C226.246 225.36 226.59 225.376 226.854 225.408C227.534 225.488 228.118 225.728 228.606 226.128C229.094 226.52 229.466 227.028 229.722 227.652C229.978 228.268 230.106 228.944 230.106 229.68C230.106 230.416 229.978 231.096 229.722 231.72C229.466 232.336 229.094 232.844 228.606 233.244C228.118 233.636 227.534 233.872 226.854 233.952C226.59 233.984 226.246 234 225.822 234H223.026V225.36H225.822ZM225.822 232.464C226.246 232.464 226.558 232.444 226.758 232.404C227.286 232.3 227.686 231.988 227.958 231.468C228.238 230.948 228.378 230.352 228.378 229.68C228.378 228.992 228.238 228.392 227.958 227.88C227.678 227.368 227.278 227.06 226.758 226.956C226.558 226.916 226.246 226.896 225.822 226.896H224.682V232.464H225.822Z" fill="url(#paint9_linear_5_3494)"/>
<defs>
<linearGradient id="paint0_linear_5_3494" x1="192.454" y1="32.7609" x2="147.812" y2="25.4624" gradientUnits="userSpaceOnUse">
<stop stop-color="#3C4663"/>
<stop offset="1" stop-color="#6C7795"/>
</linearGradient>
<linearGradient id="paint1_linear_5_3494" x1="192.454" y1="58.4264" x2="159.234" y2="37.9552" gradientUnits="userSpaceOnUse">
<stop stop-color="#3C4663"/>
<stop offset="1" stop-color="#6C7795"/>
</linearGradient>
<linearGradient id="paint2_linear_5_3494" x1="181.906" y1="25.9636" x2="169.662" y2="24.6381" gradientUnits="userSpaceOnUse">
<stop stop-color="#3C4663"/>
<stop offset="1" stop-color="#6C7795"/>
</linearGradient>
<linearGradient id="paint3_linear_5_3494" x1="193.844" y1="151.801" x2="146.94" y2="148.984" gradientUnits="userSpaceOnUse">
<stop stop-color="#3C4663"/>
<stop offset="1" stop-color="#6C7795"/>
</linearGradient>
<linearGradient id="paint4_linear_5_3494" x1="248" y1="248" x2="49.5" y2="184" gradientUnits="userSpaceOnUse">
<stop stop-color="#3C4663"/>
<stop offset="1" stop-color="#6C7795"/>
</linearGradient>
<linearGradient id="paint5_linear_5_3494" x1="189.875" y1="104.39" x2="160.864" y2="99.8217" gradientUnits="userSpaceOnUse">
<stop stop-color="#3C4663"/>
<stop offset="1" stop-color="#6C7795"/>
</linearGradient>
<linearGradient id="paint6_linear_5_3494" x1="193.805" y1="158.224" x2="155.786" y2="152.05" gradientUnits="userSpaceOnUse">
<stop stop-color="#3C4663"/>
<stop offset="1" stop-color="#6C7795"/>
</linearGradient>
<linearGradient id="paint7_linear_5_3494" x1="181" y1="262.75" x2="181" y2="362.75" gradientUnits="userSpaceOnUse">
<stop stop-color="#04123B"/>
<stop offset="1" stop-color="#04123B" stop-opacity="0"/>
</linearGradient>
<linearGradient id="paint8_linear_5_3494" x1="181" y1="63.75" x2="181" y2="115.75" gradientUnits="userSpaceOnUse">
<stop stop-color="#04123B"/>
<stop offset="1" stop-color="#04123B" stop-opacity="0"/>
</linearGradient>
<linearGradient id="paint9_linear_5_3494" x1="217.995" y1="232.625" x2="135.713" y2="219.784" gradientUnits="userSpaceOnUse">
<stop stop-color="#3C4663"/>
<stop offset="1" stop-color="#6D7795"/>
</linearGradient>
</defs>
</svg>
