<svg width="81" height="80" viewBox="0 0 81 80" fill="none" xmlns="http://www.w3.org/2000/svg">
<g clip-path="url(#clip0_8_4247)">
<path d="M42.5703 9.21787C38.42 7.39071 33.9095 6.52818 29.3779 6.69515C24.8462 6.86211 20.4114 8.05422 16.4068 10.1818C12.4022 12.3095 8.93208 15.3172 6.25725 18.979C3.58241 22.6408 1.7725 26.8614 0.963589 31.3233C0.154676 35.7853 0.367809 40.3726 1.58696 44.7403C2.80612 49.1081 4.99957 53.1426 8.00242 56.5406C9.22148 57.9201 11.328 58.0501 12.7075 56.8311C14.087 55.612 14.217 53.5055 12.998 52.126C10.6624 49.4831 8.95641 46.3451 8.00818 42.948C7.05995 39.5508 6.89418 35.983 7.52333 32.5125C8.15248 29.0421 9.56019 25.7595 11.6406 22.9114C13.721 20.0634 16.4201 17.724 19.5347 16.0692C22.6494 14.4143 26.0987 13.4872 29.6233 13.3573C33.1479 13.2274 36.6561 13.8983 39.8841 15.3194C43.1121 16.7405 45.976 18.875 48.2603 21.5622C50.5447 24.2494 52.1901 27.4196 53.073 30.8343C53.4533 32.3055 54.7806 33.3333 56.3002 33.3333H60.498C63.4603 33.3352 66.3376 34.3236 68.6758 36.1425C71.014 37.9613 72.6799 40.507 73.4105 43.3778C74.1412 46.2486 73.8951 49.2809 72.711 51.9963C71.5269 54.7116 69.4722 56.9553 66.8713 58.3733C65.255 59.2545 64.659 61.2791 65.5402 62.8955C66.4214 64.5118 68.446 65.1078 70.0624 64.2266C73.9638 62.0997 77.0457 58.7341 78.8219 54.6611C80.5981 50.5881 80.9673 46.0395 79.8712 41.7334C78.7752 37.4272 76.2764 33.6087 72.7691 30.8804C69.2618 28.1521 64.9437 26.6695 60.5002 26.6666H58.7638C57.5472 23.2286 55.7112 20.0341 53.3397 17.2443C50.4027 13.7893 46.7206 11.045 42.5703 9.21787Z" fill="#BBC3FA"/>
<path d="M42.8552 37.643C41.5535 36.3412 39.4429 36.3412 38.1412 37.643L24.8079 50.9763C23.5061 52.2781 23.5061 54.3886 24.8079 55.6904C26.1096 56.9921 28.2202 56.9921 29.5219 55.6904L37.1649 48.0474L37.1649 70C37.1649 71.841 38.6573 73.3334 40.4982 73.3334C42.3392 73.3334 43.8315 71.841 43.8315 70L43.8315 48.0474L51.4745 55.6904C52.7763 56.9921 54.8868 56.9921 56.1886 55.6904C57.4903 54.3886 57.4903 52.2781 56.1886 50.9763L42.8552 37.643Z" fill="white"/>
</g>
<defs>
<clipPath id="clip0_8_4247">
<rect width="80" height="80" fill="white" transform="translate(0.5)"/>
</clipPath>
</defs>
</svg>
