<svg width="24" height="24" viewBox="0 0 24 24" xmlns="http://www.w3.org/2000/svg">
<path d="M7.70711 9.29289C7.31658 8.90237 6.68342 8.90237 6.29289 9.29289C5.90237 9.68342 5.90237 10.3166 6.29289 10.7071L11.2929 15.7071C11.6834 16.0976 12.3166 16.0976 12.7071 15.7071L17.7071 10.7071C18.0976 10.3166 18.0976 9.68342 17.7071 9.29289C17.3166 8.90237 16.6834 8.90237 16.2929 9.29289L12 13.5858L7.70711 9.29289Z" fill="var(--color, currentcolor)"/>
<path fill-rule="evenodd" clip-rule="evenodd" d="M6 1C3.23858 1 1 3.23858 1 6V18C1 20.7614 3.23858 23 6 23H18C20.7614 23 23 20.7614 23 18V6C23 3.23858 20.7614 1 18 1H6ZM3 6C3 4.34315 4.34315 3 6 3H18C19.6569 3 21 4.34315 21 6V18C21 19.6569 19.6569 21 18 21H6C4.34315 21 3 19.6569 3 18V6Z" fill="var(--color, currentcolor)"/>
</svg>
