<svg width="24" height="24" viewBox="0 0 24 24" xmlns="http://www.w3.org/2000/svg">
<path fill-rule="evenodd" clip-rule="evenodd" d="M4 2C3.44772 2 3 2.44772 3 3C3 3.55228 3.44772 4 4 4H6V7C6 9.08697 7.06551 10.9251 8.68221 12C7.06551 13.0749 6 14.913 6 17V20H4C3.44772 20 3 20.4477 3 21C3 21.5523 3.44772 22 4 22H20C20.5523 22 21 21.5523 21 21C21 20.4477 20.5523 20 20 20H18V17C18 14.913 16.9345 13.0749 15.3178 12C16.9345 10.9251 18 9.08697 18 7V4H20C20.5523 4 21 3.55228 21 3C21 2.44772 20.5523 2 20 2H4ZM16 20V17C16 14.7909 14.2091 13 12 13C9.79086 13 8 14.7909 8 17V20H16ZM12 11C14.2091 11 16 9.20914 16 7V4H8V7C8 9.20914 9.79086 11 12 11Z" fill="var(--color, currentcolor)"/>
</svg>
