<svg width="16" height="16" viewBox="0 0 16 16" fill="none" xmlns="http://www.w3.org/2000/svg">
<path fill-rule="evenodd" fill="var(--color, currentColor)" clip-rule="evenodd" d="M3.99967 6.6665V4.6665C3.99967 3.60564 4.4211 2.58822 5.17125 1.83808C5.92139 1.08793 6.93881 0.666504 7.99967 0.666504C9.06054 0.666504 10.078 1.08793 10.8281 1.83808C11.5782 2.58822 11.9997 3.60564 11.9997 4.6665V6.6665H12.6663C13.7709 6.6665 14.6663 7.56193 14.6663 8.6665V13.3332C14.6663 14.4377 13.7709 15.3332 12.6663 15.3332H3.33301C2.22844 15.3332 1.33301 14.4377 1.33301 13.3332V8.6665C1.33301 7.56193 2.22844 6.6665 3.33301 6.6665H3.99967ZM6.11406 2.78089C6.61415 2.28079 7.29243 1.99984 7.99967 1.99984C8.70692 1.99984 9.3852 2.28079 9.88529 2.78089C10.3854 3.28098 10.6663 3.95926 10.6663 4.6665V6.6665H5.33301V4.6665C5.33301 3.95926 5.61396 3.28098 6.11406 2.78089ZM3.33301 7.99984C2.96482 7.99984 2.66634 8.29831 2.66634 8.6665V13.3332C2.66634 13.7014 2.96482 13.9998 3.33301 13.9998H12.6663C13.0345 13.9998 13.333 13.7014 13.333 13.3332V8.6665C13.333 8.29831 13.0345 7.99984 12.6663 7.99984H3.33301Z" fill="#868EA0"/>
</svg>
