<svg width="100" height="100" viewBox="0 0 100 100" fill="none" xmlns="http://www.w3.org/2000/svg">
<rect width="100" height="100" rx="50" fill="#DFF4FF"/>
<path fill-rule="evenodd" clip-rule="evenodd" d="M35 45V37.5C35 33.5218 36.5804 29.7064 39.3934 26.8934C42.2064 24.0804 46.0218 22.5 50 22.5C53.9782 22.5 57.7936 24.0804 60.6066 26.8934C63.4196 29.7064 65 33.5218 65 37.5V45H67.5C71.6421 45 75 48.3579 75 52.5V70C75 74.1421 71.6421 77.5 67.5 77.5H32.5C28.3579 77.5 25 74.1421 25 70V52.5C25 48.3579 28.3579 45 32.5 45H35ZM42.9289 30.4289C44.8043 28.5536 47.3478 27.5 50 27.5C52.6522 27.5 55.1957 28.5536 57.0711 30.4289C58.9464 32.3043 60 34.8478 60 37.5V45H40V37.5C40 34.8478 41.0536 32.3043 42.9289 30.4289ZM32.5 50C31.1193 50 30 51.1193 30 52.5V70C30 71.3807 31.1193 72.5 32.5 72.5H67.5C68.8807 72.5 70 71.3807 70 70V52.5C70 51.1193 68.8807 50 67.5 50H32.5Z" fill="#28ABF5"/>
</svg>
