<svg width="250" height="30" viewBox="0 0 250 30" fill="none" xmlns="http://www.w3.org/2000/svg">
<path d="M61.28 9.5C60.8667 9.5 60.5533 9.60667 60.34 9.82C60.1267 10.02 60.02 10.28 60.02 10.6V11.2H62.52V13.3H60.02V22H57.3V13.3H55.6V11.2H57.3C57.3 10.5467 57.3333 9.99333 57.4 9.54C57.48 9.07333 57.6867 8.66 58.02 8.3C58.3267 7.95333 58.6667 7.71333 59.04 7.58C59.4133 7.43333 59.7333 7.35333 60 7.34C60.2667 7.31333 60.66 7.3 61.18 7.3H62.52V9.5H61.28ZM68.4748 11.72C69.0882 11.3467 69.8082 11.16 70.6348 11.16C70.7815 11.16 70.9882 11.1733 71.2548 11.2V13.74C71.0148 13.6733 70.7615 13.64 70.4948 13.64C70.0015 13.64 69.5482 13.7333 69.1348 13.92C68.6548 14.1467 68.2882 14.48 68.0348 14.92C67.7815 15.3467 67.6548 15.8667 67.6548 16.48V22H64.9148V11.2H67.3148V12.94C67.6082 12.42 67.9948 12.0133 68.4748 11.72ZM78.5217 22.3C77.4284 22.3 76.4751 22.0533 75.6617 21.56C74.8617 21.0667 74.2417 20.3867 73.8017 19.52C73.3751 18.6533 73.1617 17.68 73.1617 16.6C73.1617 15.5067 73.3817 14.5333 73.8217 13.68C74.2751 12.8133 74.9084 12.1333 75.7217 11.64C76.5351 11.1467 77.4817 10.9 78.5617 10.9C79.8284 10.9 80.8951 11.2267 81.7617 11.88C82.6284 12.52 83.1817 13.3933 83.4217 14.5L80.7017 15.22C80.5417 14.66 80.2617 14.2267 79.8617 13.92C79.4751 13.6 79.0284 13.44 78.5217 13.44C77.6951 13.44 77.0751 13.7333 76.6617 14.32C76.2484 14.8933 76.0417 15.6533 76.0417 16.6C76.0417 17.56 76.2551 18.3267 76.6817 18.9C77.1084 19.4733 77.7217 19.76 78.5217 19.76C79.1084 19.76 79.5617 19.6267 79.8817 19.36C80.2151 19.0933 80.4684 18.6867 80.6417 18.14L83.4217 18.72C83.1151 19.8667 82.5351 20.7533 81.6817 21.38C80.8284 21.9933 79.7751 22.3 78.5217 22.3ZM86.1289 7.3H88.8489V9.7H86.1289V7.3ZM86.1289 11.2H88.8489V22H86.1289V11.2ZM104.627 10.94C105.827 10.94 106.747 11.3 107.387 12.02C108.04 12.7267 108.367 13.6867 108.367 14.9V22H105.647V15.62C105.647 14.9133 105.474 14.36 105.127 13.96C104.794 13.56 104.334 13.36 103.747 13.36C103.187 13.36 102.734 13.5533 102.387 13.94C102.04 14.3267 101.867 14.8333 101.867 15.46V22H99.1469V15.62C99.1469 14.9133 98.9735 14.36 98.6269 13.96C98.2935 13.56 97.8335 13.36 97.2469 13.36C96.6869 13.36 96.2335 13.5533 95.8869 13.94C95.5402 14.3267 95.3669 14.8333 95.3669 15.46V22H92.6269V11.2H95.0269V12.38C95.3869 11.9267 95.8402 11.5733 96.3869 11.32C96.9469 11.0667 97.5469 10.94 98.1869 10.94C98.9335 10.94 99.5669 11.0867 100.087 11.38C100.62 11.6733 101.034 12.0867 101.327 12.62C101.674 12.1 102.14 11.6933 102.727 11.4C103.314 11.0933 103.947 10.94 104.627 10.94ZM113.892 17.36C113.999 18.1333 114.265 18.7267 114.692 19.14C115.119 19.5533 115.699 19.76 116.432 19.76C116.965 19.76 117.419 19.6467 117.792 19.42C118.179 19.18 118.472 18.84 118.672 18.4L121.392 19.18C120.992 20.1533 120.352 20.92 119.472 21.48C118.605 22.0267 117.645 22.3 116.592 22.3C115.499 22.3 114.525 22.0667 113.672 21.6C112.819 21.12 112.152 20.46 111.672 19.62C111.205 18.7667 110.972 17.8067 110.972 16.74C110.972 15.58 111.199 14.56 111.652 13.68C112.119 12.7867 112.765 12.1 113.592 11.62C114.419 11.14 115.365 10.9 116.432 10.9C117.472 10.9 118.372 11.1333 119.132 11.6C119.905 12.0533 120.499 12.7067 120.912 13.56C121.325 14.4133 121.532 15.4133 121.532 16.56C121.532 16.72 121.519 16.9867 121.492 17.36H113.892ZM116.552 13.26C115.112 13.26 114.252 13.9533 113.972 15.34H118.732C118.639 14.62 118.412 14.0933 118.052 13.76C117.705 13.4267 117.205 13.26 116.552 13.26ZM130.147 10.88C131.934 10.88 133.08 11.44 133.587 12.56C134.107 13.6667 134.367 14.7933 134.367 15.94V22H131.607V16.9C131.607 15.9933 131.467 15.1933 131.187 14.5C130.92 13.7933 130.287 13.44 129.287 13.44C128.66 13.44 128.12 13.66 127.667 14.1C127.214 14.5267 126.987 15.3333 126.987 16.52V22H124.227V11.2H126.647V12.32C127.5 11.36 128.667 10.88 130.147 10.88ZM146.382 12.86C146.568 13.22 146.688 13.5867 146.742 13.96C146.795 14.3333 146.822 14.8133 146.822 15.4V22H144.442V20.68C143.962 21.2533 143.435 21.6667 142.862 21.92C142.288 22.1733 141.588 22.3 140.762 22.3C140.015 22.3 139.368 22.1533 138.822 21.86C138.275 21.5667 137.862 21.1733 137.582 20.68C137.302 20.1867 137.162 19.6333 137.162 19.02C137.162 18.2333 137.342 17.5733 137.702 17.04C138.075 16.4933 138.682 16.0667 139.522 15.76C139.988 15.5867 140.562 15.44 141.242 15.32C141.935 15.1867 142.902 15.0267 144.142 14.84C144.075 14.3333 143.888 13.9667 143.582 13.74C143.275 13.5 142.802 13.38 142.162 13.38C141.695 13.38 141.255 13.4867 140.842 13.7C140.442 13.9133 140.162 14.2467 140.002 14.7L137.542 13.92C137.822 12.9867 138.348 12.2533 139.122 11.72C139.895 11.1733 140.908 10.9 142.162 10.9C144.282 10.9 145.688 11.5533 146.382 12.86ZM143.842 18.72C144.002 18.3867 144.095 17.8333 144.122 17.06C143.215 17.2067 142.535 17.3333 142.082 17.44C141.628 17.5333 141.248 17.6333 140.942 17.74C140.542 17.9 140.255 18.08 140.082 18.28C139.908 18.4667 139.822 18.7 139.822 18.98C139.822 19.3533 139.955 19.6467 140.222 19.86C140.502 20.06 140.875 20.16 141.342 20.16C141.995 20.16 142.535 20.0067 142.962 19.7C143.388 19.38 143.682 19.0533 143.842 18.72ZM148.831 11.2H151.551L154.111 18.68L156.671 11.2H159.391L155.471 22H152.751L148.831 11.2ZM166.468 22.3C165.401 22.3 164.454 22.06 163.628 21.58C162.801 21.0867 162.154 20.4133 161.688 19.56C161.234 18.6933 161.008 17.7067 161.008 16.6C161.008 15.4933 161.241 14.5067 161.708 13.64C162.174 12.7733 162.821 12.1 163.648 11.62C164.474 11.14 165.414 10.9 166.468 10.9C167.534 10.9 168.481 11.1467 169.308 11.64C170.148 12.12 170.794 12.7933 171.248 13.66C171.714 14.5133 171.948 15.4933 171.948 16.6C171.948 17.7067 171.714 18.6933 171.248 19.56C170.794 20.4267 170.148 21.1 169.308 21.58C168.481 22.06 167.534 22.3 166.468 22.3ZM166.468 19.76C167.308 19.76 167.948 19.4733 168.388 18.9C168.841 18.3267 169.068 17.56 169.068 16.6C169.068 15.6133 168.841 14.84 168.388 14.28C167.948 13.72 167.308 13.44 166.468 13.44C165.601 13.44 164.954 13.7267 164.528 14.3C164.101 14.86 163.888 15.6267 163.888 16.6C163.888 17.5867 164.108 18.36 164.548 18.92C164.988 19.48 165.628 19.76 166.468 19.76ZM184.647 7.6V22H182.247V21.38C181.447 21.9933 180.474 22.3 179.327 22.3C178.354 22.3 177.487 22.0533 176.727 21.56C175.98 21.0667 175.394 20.3867 174.967 19.52C174.554 18.6533 174.347 17.68 174.347 16.6C174.347 15.5067 174.56 14.5267 174.987 13.66C175.414 12.7933 176.014 12.12 176.787 11.64C177.56 11.1467 178.454 10.9 179.467 10.9C180.387 10.9 181.2 11.12 181.907 11.56V7.6H184.647ZM179.767 19.88C181.42 19.88 182.247 18.7867 182.247 16.6C182.247 15.5733 182.054 14.7733 181.667 14.2C181.28 13.6133 180.68 13.32 179.867 13.32C179 13.32 178.34 13.6267 177.887 14.24C177.447 14.8533 177.227 15.64 177.227 16.6C177.227 17.5733 177.44 18.3667 177.867 18.98C178.294 19.58 178.927 19.88 179.767 19.88ZM188.447 7.3H191.167V9.7H188.447V7.3ZM188.447 11.2H191.167V22H188.447V11.2ZM194.965 7.6H197.725V16.4L201.385 11.2H204.745L200.845 16.6L205.005 22H201.465L197.725 16.8V22H194.945L194.965 7.6ZM216.72 11.2V22H214.32V20.88C213.467 21.84 212.3 22.32 210.82 22.32C209.033 22.32 207.88 21.7667 207.36 20.66C206.853 19.54 206.6 18.4067 206.6 17.26V11.2H209.36V16.3C209.36 17.2067 209.493 18.0133 209.76 18.72C210.04 19.4133 210.68 19.76 211.68 19.76C212.307 19.76 212.847 19.5467 213.3 19.12C213.753 18.68 213.98 17.8667 213.98 16.68V11.2H216.72ZM220.755 19.28H223.475V22H220.755V19.28ZM232.281 22.3C231.188 22.3 230.234 22.0533 229.421 21.56C228.621 21.0667 228.001 20.3867 227.561 19.52C227.134 18.6533 226.921 17.68 226.921 16.6C226.921 15.5067 227.141 14.5333 227.581 13.68C228.034 12.8133 228.668 12.1333 229.481 11.64C230.294 11.1467 231.241 10.9 232.321 10.9C233.588 10.9 234.654 11.2267 235.521 11.88C236.388 12.52 236.941 13.3933 237.181 14.5L234.461 15.22C234.301 14.66 234.021 14.2267 233.621 13.92C233.234 13.6 232.788 13.44 232.281 13.44C231.454 13.44 230.834 13.7333 230.421 14.32C230.008 14.8933 229.801 15.6533 229.801 16.6C229.801 17.56 230.014 18.3267 230.441 18.9C230.868 19.4733 231.481 19.76 232.281 19.76C232.868 19.76 233.321 19.6267 233.641 19.36C233.974 19.0933 234.228 18.6867 234.401 18.14L237.181 18.72C236.874 19.8667 236.294 20.7533 235.441 21.38C234.588 21.9933 233.534 22.3 232.281 22.3ZM238.981 21.66L244.281 13.56H239.581V11.2H248.481V11.54L243.201 19.64H248.281V22H238.981V21.66Z" fill="var(--color, currentColor)"/>
<circle cx="8.5" cy="15" r="8" fill="#28ABF5"/>
<circle cx="34.0996" cy="15" r="8" fill="#28ABF5"/>
<rect x="10.9004" y="12.5996" width="20.8" height="4.8" fill="#28ABF5"/>
</svg>
