<svg width="24" height="24" viewBox="0 0 24 24" xmlns="http://www.w3.org/2000/svg">
<path fill-rule="evenodd" clip-rule="evenodd" d="M5.75295 1.69995C5.14219 1.69995 4.64706 2.19506 4.64706 2.80583V3.75877C4.64706 5.52552 5.74409 7.03605 7.29413 7.64634V8.52337C7.29413 10.0363 8.00806 11.3824 9.11739 12.2433L8.67588 13.3471C4.98586 13.3648 2 16.3616 2 20.0558V21.2294C2 21.7816 2.44772 22.2294 3 22.2294H21C21.5523 22.2294 22 21.7816 22 21.2294V20.0558C22 16.3616 19.0141 13.3648 15.3241 13.3471L14.8826 12.2433C15.992 11.3824 16.7059 10.0363 16.7059 8.52337V7.29075C17.0345 6.93437 17.2353 6.45825 17.2353 5.93525V4.69995C17.2353 3.0431 15.8922 1.69995 14.2353 1.69995H5.75295ZM15.2353 5.93513V4.69995C15.2353 4.14767 14.7876 3.69995 14.2353 3.69995H6.64706V3.75877C6.64706 4.95326 7.60931 5.92301 8.80093 5.93513H15.2353ZM7.1959 15.5953C7.87822 16.7711 9.37333 17.9941 12 17.9941C14.6267 17.9941 16.1218 16.7711 16.8041 15.5953C18.6625 16.2254 20 17.9844 20 20.0558V20.2294H4V20.0558C4 17.9844 5.33746 16.2254 7.1959 15.5953ZM14.5578 15.204C14.0754 15.0082 13.6804 14.623 13.4793 14.1203L13.0737 13.1062C12.7288 13.1867 12.3694 13.2292 12 13.2292C11.6306 13.2292 11.2712 13.1867 10.9263 13.1062L10.5207 14.1203C10.3196 14.623 9.92462 15.0082 9.4422 15.204C9.93277 15.6232 10.7327 15.9941 12 15.9941C13.2673 15.9941 14.0672 15.6232 14.5578 15.204ZM12 11.2292C10.5056 11.2292 9.29413 10.0178 9.29413 8.52337V7.93513H14.7059V8.52337C14.7059 10.0178 13.4944 11.2292 12 11.2292Z" fill="var(--color, currentcolor)"/>
</svg>
