<svg width="100" height="100" viewBox="0 0 100 100" fill="none" xmlns="http://www.w3.org/2000/svg">
<rect width="100" height="100" rx="50" fill="#DFF4FF"/>
<path fill-rule="evenodd" clip-rule="evenodd" d="M22.5003 34.9566C22.4999 34.9813 22.4999 35.006 22.5002 35.0306V65C22.5002 69.1307 25.8695 72.5 30.0002 72.5H70.0002C74.1309 72.5 77.5002 69.1307 77.5002 65V35.0309C77.5005 35.006 77.5005 34.9812 77.5001 34.9563C77.4764 30.8455 74.1163 27.5 70.0002 27.5H30.0002C25.884 27.5 22.5238 30.8457 22.5003 34.9566ZM27.7667 33.8849C28.1801 33.0673 29.0303 32.5 30.0002 32.5H70.0002C70.9701 32.5 71.8203 33.0673 72.2338 33.8849L50.0002 49.4484L27.7667 33.8849ZM72.5002 39.8016V65C72.5002 66.3693 71.3695 67.5 70.0002 67.5H30.0002C28.6309 67.5 27.5002 66.3693 27.5002 65V39.8016L48.5666 54.5481C49.4274 55.1506 50.5731 55.1506 51.4339 54.5481L72.5002 39.8016Z" fill="#28ABF5"/>
</svg>
