<svg version="1.1" xmlns="http://www.w3.org/2000/svg" xmlns:xlink="http://www.w3.org/1999/xlink" x="0px" y="0px" viewBox="0 0 1000 1000" enable-background="new 0 0 1000 1000" xml:space="preserve">
<g>
<g transform="translate(0.000000,512.000000) scale(0.100000,-0.100000)">
<path fill="var(--color, currentcolor)" d="M7785,4906.7c-392.4-160.8-539.8-229.7-1081.4-501.5c-557-279.5-1223.1-654.6-1315-738.8c-78.5-72.7-84.2-156.9-15.3-225.9c80.4-82.3,137.8-65.1,476.6,132.1c430.7,250.7,673.7,380.9,1092.9,591.4c312,155,966.6,453.6,995.3,453.6c5.7,0,7.7-1426,5.7-3169.7l-5.7-3169.7L7651-1830.8c-157-59.3-415.4-164.6-574.2-231.6c-333.1-143.6-1261.4-601-1636.5-809.6l-258.4-141.7l-9.6,3141c-5.7,1732.2-17.2,3156.3-26.8,3175.4c-24.9,49.8-178,122.5-461.3,214.4c-465.1,155-903.4,212.5-1435.5,193.3c-800.1-30.6-1517.8-122.5-2176.3-281.4c-201-47.9-252.7-67-283.3-107.2c-38.3-49.8-38.3-76.6-38.3-3694.1v-3646.3l55.5-55.5c30.6-30.6,68.9-55.5,84.2-55.5c15.3,0,135.9,24.9,268,57.4c673.8,160.8,1586.8,268,2281.6,268c467,0,780.9-51.7,1211.6-197.1l176.1-59.3v-197.1V-4455l-2023.2,3.8l-2025.1,5.7l-76.6,42.1c-90,47.9-181.8,141.6-231.6,235.4c-34.5,65.1-36.4,195.2-45.9,3349.6c-5.7,1805-17.2,3296-24.9,3313.2c-19.1,36.4-93.8,74.6-149.3,74.6c-21.1,0-65.1-24.9-95.7-55.5l-55.5-57.4l3.8-3307.5l5.7-3309.4l70.8-143.6c88-178,233.5-321.6,411.5-405.8l130.2-61.3l4210.9-5.7c3173.5-3.8,4237.7,0,4316.2,17.2c296.7,63.2,545.5,300.5,624,599.1c21.1,80.4,26.8,656.5,26.8,3357.3v3261.6l-55.5,55.5c-30.6,30.6-74.6,55.5-95.7,55.5c-59.3,0-130.1-38.3-153.1-84.2c-15.3-28.7-22.9-945.5-26.8-3313.2l-3.8-3273l-42.1-76.6c-47.9-90-141.6-181.8-235.4-231.6c-63.2-34.5-158.9-36.4-2090.2-42.1l-2025.1-3.8v191.4v189.5l187.6,59.3c258.4,80.4,566.6,147.4,836.4,183.8c181.8,24.9,327.3,28.7,698.6,21.1c700.5-17.2,1334.1-99.5,1937-254.6c145.5-38.3,281.4-63.2,302.4-55.5c21,5.7,55.5,34.5,76.6,61.3c38.3,49.8,38.3,63.2,38.3,3692.2v3642.5l-42.1,47.9c-34.5,40.2-82.3,57.4-233.5,88.1c-245,49.8-289,49.8-346.4-9.6c-107.2-105.3-24.9-260.3,151.2-285.2c51.7-7.7,105.3-19.1,118.7-24.9c23-7.7,26.8-549.3,26.8-3426.2c0-3227.1-1.9-3416.6-32.5-3405.1c-74.6,28.7-704.4,147.4-972.3,181.8c-744.6,97.6-1537,103.3-2009.8,13.4c-287.1-55.5-537.8-118.7-758-193.3l-137.8-47.9l-179.9,67c-243.1,91.9-566.6,174.2-840.3,212.5c-185.7,24.9-319.6,28.7-735,21.1c-683.3-15.3-1320.7-86.1-1933.2-216.3c-120.6-24.9-225.9-45.9-233.5-45.9c-9.6,0-15.3,1540.8-15.3,3424.3v3422.3l292.8,61.2c662.3,137.8,1397.3,216.3,2042.3,218.2c359.8,0,467-5.7,650.8-40.2c229.7-42.1,470.9-107.2,656.5-176.1l109.1-40.2V-92.8c0-3531.4-7.7-3317.1,114.8-3366.8c72.7-30.6,36.4-45.9,593.4,266.1c708.2,396.2,1789.6,901.5,2402.1,1121.6c137.8,47.9,266.1,105.3,287.1,126.3c38.3,36.4,38.3,63.2,38.3,3454.9v3418.5l-53.6,45.9c-28.7,24.9-76.6,45.9-105.3,44C8075.9,5017.7,7932.3,4968,7785,4906.7z"/>
<path fill="var(--color, currentcolor)" d="M7067.2,3155.4c-478.5-183.8-1336-595.3-1383.9-664.2c-19.1-24.9-32.5-65.1-32.5-90c0-59.3,99.5-157,158.9-157c24.9,0,222,86.1,436.4,189.5c392.4,189.5,784.8,361.8,1008.7,442.2c170.4,61.3,229.7,149.3,172.3,254.6C7369.6,3237.7,7295,3243.4,7067.2,3155.4z"/>
<path fill="var(--color, currentcolor)" d="M7076.8,2179.2C6604,2005,5713.9,1572.4,5671.8,1495.9c-51.7-93.8,24.9-227.8,128.3-227.8c30.6,0,204.8,72.7,388.5,160.8c426.9,204.8,790.5,365.6,983.8,436.4c204.8,72.7,231.6,88,256.5,143.6c34.4,74.6,24.9,120.6-34.5,179.9C7323.7,2257.7,7291.1,2257.7,7076.8,2179.2z"/>
<path fill="var(--color, currentcolor)" d="M2645.7,2050.9c-166.5-17.2-643.1-99.5-767.5-132.1c-143.6-38.3-191.4-191.4-86.1-279.5c61.3-53.6,99.5-55.5,268-17.2c486.2,112.9,1228.8,157,1638.4,95.7c400-57.4,375.2-57.4,428.7-3.8c34.5,34.5,49.8,70.8,49.8,118.7c0,126.3-74.6,162.7-436.4,210.5C3514.7,2073.9,2911.8,2077.7,2645.7,2050.9z"/>
<path fill="var(--color, currentcolor)" d="M7057.6,1193.4c-222-86.1-622.1-264.1-1047-467c-329.2-158.9-373.2-195.2-352.2-310.1c15.3-78.5,72.7-124.4,156.9-124.4c36.4,0,208.6,72.7,449.8,189.5c411.5,201,712,333,964.7,424.9c84.2,30.6,168.4,74.6,187.6,95.7c45.9,55.5,40.2,139.7-9.6,197.1C7339,1277.7,7272,1275.7,7057.6,1193.4z"/>
<path fill="var(--color, currentcolor)" d="M2798.8,1082.4c-394.3-36.4-888.1-122.5-978.1-168.4c-70.8-38.3-105.3-126.3-76.6-199.1c38.3-90,95.7-109.1,256.5-80.4c449.8,80.4,564.6,97.6,798.2,118.7c306.3,26.8,780.9,13.4,1014.5-28.7c90-17.2,189.5-30.6,223.9-30.6c122.5,0,187.6,178,95.7,264.1c-84.2,80.4-516.8,139.7-974.3,134C2997.9,1092,2835.2,1086.3,2798.8,1082.4z"/>
<path fill="var(--color, currentcolor)" d="M7138,240.2c-220.1-74.6-681.4-277.5-1085.3-480.4c-367.5-181.8-373.2-187.6-390.5-258.4c-15.3-59.4-11.5-80.4,19.1-122.5c80.4-107.2,109.1-101.4,491.9,82.3c438.3,210.5,840.3,386.7,1037.4,457.5C7379.2-23.9,7450,35.4,7450,117.7c0,68.9-61.3,147.4-124.4,158.9C7298.8,282.4,7214.6,265.1,7138,240.2z"/>
<path fill="var(--color, currentcolor)" d="M2856.2,108.2c-36.4-3.8-157-17.2-268-28.7C2349,54.6,1914.5-25.8,1832.2-62.2c-128.2-51.7-128.2-235.4-1.9-287.1c51.7-21,90-17.2,269.9,21c388.5,82.3,662.3,111,1091,111c310.1,0,446-7.7,593.4-36.4c105.3-19.1,216.3-34.4,245-34.4c132.1,0,199.1,179.9,101.5,271.8c-72.7,68.9-386.6,116.7-834.5,124.4C3091.7,112,2892.6,112,2856.2,108.2z"/>
<path fill="var(--color, currentcolor)" d="M7057.6-768.5c-223.9-82.3-585.7-243.1-1014.5-451.7c-356-172.3-392.4-201-392.4-308.2c0-49.8,99.5-151.2,149.3-151.2c19.1,0,233.5,93.8,474.7,208.6c451.7,214.4,823,375.1,997.2,432.6c170.3,53.6,229.7,189.5,130.2,287.1C7339-688.1,7270.1-690,7057.6-768.5z"/>
<path fill="var(--color, currentcolor)" d="M2885-868c-231.6-19.1-612.5-70.8-823-114.8c-176.1-38.3-241.2-59.3-275.6-93.8c-53.6-53.6-65.1-158.9-21.1-210.5c55.5-67,109.1-68.9,342.6-21c631.6,132.1,1307.3,155,1774.3,57.4c118.7-23,156.9-24.9,202.9-5.8c137.8,57.4,120.6,254.6-28.7,302.4C3872.6-892.9,3195-843.1,2885-868z"/>
<path fill="var(--color, currentcolor)" d="M2875.4-1851.8c-409.6-26.8-989.6-128.2-1070-187.6c-95.7-70.8-91.9-199.1,7.7-264.1c47.9-30.6,61.3-30.6,312,19.1c143.6,28.7,365.6,63.2,491.9,78.5c306.3,38.3,882.4,36.4,1129.3-1.9c105.3-15.3,223.9-34.5,262.2-40.2c93.8-13.4,168.4,55.5,168.4,157c0,109.1-57.4,151.2-260.3,189.5c-164.6,28.7-647,70.8-763.7,65.1C3122.3-1836.5,2996-1844.2,2875.4-1851.8z"/></g></g>
</svg>