<svg width="16" height="16" viewBox="0 0 16 16" fill="none" xmlns="http://www.w3.org/2000/svg">
<path d="M7.13998 8.85998L6.55998 8.27998C7.48908 7.04599 7.99422 5.54463 7.99998 3.99998H8.66665C8.84346 3.99998 9.01303 3.92974 9.13805 3.80472C9.26308 3.67969 9.33331 3.51012 9.33331 3.33331C9.33331 3.1565 9.26308 2.98693 9.13805 2.86191C9.01303 2.73688 8.84346 2.66665 8.66665 2.66665H5.99998V1.99998C5.99998 1.82317 5.92974 1.6536 5.80472 1.52858C5.67969 1.40355 5.51012 1.33331 5.33331 1.33331C5.1565 1.33331 4.98693 1.40355 4.86191 1.52858C4.73688 1.6536 4.66665 1.82317 4.66665 1.99998V2.66665H1.99998C1.82317 2.66665 1.6536 2.73688 1.52858 2.86191C1.40355 2.98693 1.33331 3.1565 1.33331 3.33331C1.33331 3.51012 1.40355 3.67969 1.52858 3.80472C1.6536 3.92974 1.82317 3.99998 1.99998 3.99998H6.66665C6.66519 5.19377 6.29498 6.35795 5.60665 7.33331L3.80665 5.52665C3.68111 5.40111 3.51085 5.33059 3.33331 5.33059C3.15578 5.33059 2.98552 5.40111 2.85998 5.52665C2.73444 5.65218 2.66392 5.82245 2.66392 5.99998C2.66392 6.17751 2.73444 6.34778 2.85998 6.47331L4.71998 8.33331C4.56674 8.47516 4.40415 8.60657 4.23331 8.72665L2.27998 10.1266C2.16616 10.209 2.08128 10.3253 2.03747 10.4588C1.99366 10.5923 1.99317 10.7363 2.03605 10.8701C2.07893 11.0039 2.16299 11.1208 2.27624 11.2039C2.38949 11.2871 2.52613 11.3324 2.66665 11.3333C2.80559 11.3324 2.94077 11.2881 3.05331 11.2066L5.00665 9.81331C5.2389 9.64845 5.46149 9.47038 5.67331 9.27998L6.19998 9.80665C6.26196 9.86913 6.33569 9.91873 6.41693 9.95257C6.49817 9.98642 6.58531 10.0038 6.67331 10.0038C6.76132 10.0038 6.84846 9.98642 6.9297 9.95257C7.01094 9.91873 7.08467 9.86913 7.14665 9.80665C7.2087 9.74423 7.25778 9.67015 7.29105 9.58867C7.32433 9.50719 7.34114 9.41993 7.34052 9.33192C7.3399 9.24392 7.32186 9.1569 7.28744 9.0759C7.25302 8.9949 7.2029 8.92151 7.13998 8.85998Z" fill="var(--color, currentcolor)"/>
<path d="M14.6066 13.7267L11.2733 6.39333C11.2203 6.27694 11.1349 6.17826 11.0273 6.10906C10.9197 6.03987 10.7945 6.00307 10.6666 6.00307C10.5387 6.00307 10.4135 6.03987 10.306 6.10906C10.1984 6.17826 10.113 6.27694 10.06 6.39333L6.72664 13.7267C6.68421 13.8072 6.65872 13.8955 6.65173 13.9863C6.64474 14.077 6.6564 14.1682 6.686 14.2543C6.7156 14.3403 6.76251 14.4194 6.82383 14.4867C6.88515 14.5539 6.9596 14.6079 7.04257 14.6453C7.12555 14.6827 7.2153 14.7027 7.3063 14.7041C7.3973 14.7054 7.48762 14.6882 7.57169 14.6533C7.65576 14.6185 7.73181 14.5668 7.79515 14.5014C7.85849 14.4361 7.90778 14.3585 7.93997 14.2733L8.97331 12H12.36L13.3933 14.2733C13.4459 14.3903 13.5311 14.4896 13.6387 14.5594C13.7463 14.6292 13.8717 14.6664 14 14.6667C14.0943 14.6662 14.1875 14.6458 14.2733 14.6067C14.434 14.5339 14.5593 14.4005 14.6217 14.2355C14.6842 14.0706 14.6788 13.8876 14.6066 13.7267ZM9.57998 10.6667L10.6666 8.28L11.7533 10.6667H9.57998Z" fill="var(--color, currentcolor)"/>
</svg>
