<svg width="24" height="24" viewBox="0 0 24 24" fill="none" xmlns="http://www.w3.org/2000/svg">
<path fill-rule="evenodd" fill="var(--color, currentColor)" clip-rule="evenodd" d="M8 7C8 4.79086 9.79086 3 12 3C14.0207 3 15.6929 4.4993 15.962 6.44579C16.0377 6.99287 16.5425 7.37504 17.0896 7.29939C17.6367 7.22374 18.0188 6.71892 17.9432 6.17184C17.5391 3.2497 15.0331 1 12 1C8.68629 1 6 3.68629 6 7V10H5C3.34315 10 2 11.3431 2 13V20C2 21.6569 3.34315 23 5 23H19C20.6569 23 22 21.6569 22 20V13C22 11.3431 20.6569 10 19 10H8V7ZM5 12C4.44772 12 4 12.4477 4 13V20C4 20.5523 4.44772 21 5 21H19C19.5523 21 20 20.5523 20 20V13C20 12.4477 19.5523 12 19 12H5Z" fill="#04123B"/>
</svg>
